G04 ================== begin FILE IDENTIFICATION RECORD ==================*
G04 Layout Name:  project01_2Doctoreda.brd*
G04 Film Name:    fab*
G04 File Format:  Gerber RS274X*
G04 File Origin:  Cadence Allegro 24.1-S004*
G04 Origin Date:  Sat May 17 17:30:28 2025*
G04 *
G04 Layer:  MANUFACTURING/XSECTION_CHART*
G04 Layer:  MANUFACTURING/NCLEGEND-1-2*
G04 Layer:  DRAWING FORMAT/OUTLINE*
G04 Layer:  DRAWING FORMAT/TITLE_BLOCK*
G04 Layer:  DRAWING FORMAT/TITLE_DATA*
G04 Layer:  DRAWING FORMAT/REVISION_BLOCK*
G04 Layer:  DRAWING FORMAT/REVISION_DATA*
G04 Layer:  BOARD GEOMETRY/DIMENSION*
G04 Layer:  BOARD GEOMETRY/DESIGN_OUTLINE*
G04 *
G04 Offset:    (0.0000 0.0000)*
G04 Mirror:    No*
G04 Mode:      Positive*
G04 Rotation:  0*
G04 FullContactRelief:  No*
G04 UndefLineWidth:     0.2100*
G04 ================== end FILE IDENTIFICATION RECORD ====================*
%FSLAX25Y25*MOMM*%
%IR0*IPPOS*OFA0.00000B0.00000*MIA0B0*SFA1.00000B1.00000*%
%AMMACRO10*
1,1,.21,.1651,0.0*
20,1,.21,.1651,0.0,-.1651,0.0,0.0*
1,1,.21,-.1651,0.0*
1,1,.21,0.0,.1651*
20,1,.21,0.0,.1651,0.0,-.1651,0.0*
1,1,.21,0.0,-.1651*
%
%ADD10MACRO10*%
%AMMACRO11*
1,1,.21,.5334,0.0*
20,1,.21,.5334,0.0,.2667,.461938,0.0*
1,1,.21,.2667,.461938*
20,1,.21,.2667,.461938,-.2667,.461938,0.0*
1,1,.21,-.2667,.461938*
20,1,.21,-.2667,.461938,-.5334,0.0,0.0*
1,1,.21,-.5334,0.0*
20,1,.21,-.5334,0.0,-.2667,-.461938,0.0*
1,1,.21,-.2667,-.461938*
20,1,.21,-.2667,-.461938,.2667,-.461938,0.0*
1,1,.21,.2667,-.461938*
20,1,.21,.2667,-.461938,.5334,0.0,0.0*
1,1,.21,.5334,0.0*
%
%ADD11MACRO11*%
%AMMACRO12*
1,1,.21,.5,.5*
20,1,.21,.5,.5,.5,-.5,0.0*
1,1,.21,.5,-.5*
20,1,.21,.5,-.5,-.5,-.5,0.0*
1,1,.21,-.5,-.5*
20,1,.21,-.5,-.5,-.5,.5,0.0*
1,1,.21,-.5,.5*
20,1,.21,-.5,.5,.5,.5,0.0*
1,1,.21,.5,.5*
%
%ADD12MACRO12*%
%ADD13C,.21*%
%ADD14C,.0053*%
G75*
%LPD*%
G75*
G36*
G01X19406280Y1766950D02*
Y1181740D01*
X19469780D01*
Y-2719700D01*
X19406280D01*
Y-3304910D01*
X19787280D01*
Y-2719700D01*
X19723780D01*
Y1181740D01*
X19787280D01*
Y1766950D01*
X19406280D01*
G37*
G36*
G01X18898280Y-3304910D02*
Y-2719700D01*
X20422280D01*
Y-3304910D01*
X18898280D01*
G37*
G36*
G01Y1181740D02*
Y1766950D01*
X20422280D01*
Y1181740D01*
X18898280D01*
G37*
G54D10*
X530000Y465000D03*
X397500Y337500D03*
X1039230Y-2555000D03*
X1027500Y465000D03*
X1249250Y670340D03*
X1123520Y1740950D03*
X1365000Y850000D03*
X2010000Y2152500D03*
X2732500Y1192500D03*
X2335000Y850000D03*
X2409120Y1002500D03*
X2287880Y1191000D03*
X2630000Y1310000D03*
X2797500Y2150000D03*
X2472500Y2152500D03*
X2242500Y2155000D03*
X2857500Y1061890D03*
X3535000Y1100000D03*
X3465000Y550000D03*
X3412500Y980000D03*
X3530000Y928940D03*
X3290000Y1877500D03*
X3104000Y1725000D03*
X2872500Y1882500D03*
X3472500Y1432500D03*
X2861250Y1501250D03*
X3450000Y1805000D03*
X3062500Y2150000D03*
X3335000Y2165000D03*
X4228750Y476250D03*
X3845000Y435000D03*
X3850000Y984500D03*
X3827500Y1192500D03*
X3690000Y928940D03*
X3687500Y1150000D03*
X3690000Y1910000D03*
X3930000Y1778940D03*
X4140000Y1962500D03*
X3610000Y1778940D03*
X4914030Y1127500D03*
X4915000Y787500D03*
X4882500Y1892500D03*
X4630000Y1412500D03*
X4527500Y1630000D03*
X4390000Y1597500D03*
X5334270Y600000D03*
X5399270Y1202500D03*
X5418380Y950000D03*
X5325000Y1373540D03*
X5322500Y2107500D03*
X5928380Y1300000D03*
G54D11*
X1039230Y-3825000D03*
X625000Y150000D03*
X879000D03*
X1133000D03*
X925000Y2075000D03*
X1179000D03*
X1387000Y150000D03*
X1641000D03*
X1895000D03*
X1600000Y2375000D03*
X1854000D03*
X2149000Y150000D03*
X2403000D03*
X2657000D03*
X2108000Y2375000D03*
X2362000D03*
X2616000D03*
X2975000Y150000D03*
X3229000D03*
X3483000D03*
X2870000Y2375000D03*
X3124000D03*
X3378000D03*
X3737000Y150000D03*
X3991000D03*
X4245000D03*
X3632000Y2375000D03*
X3886000D03*
X4140000D03*
X4550000Y150000D03*
X4804000D03*
X5058000D03*
X4394000Y2375000D03*
X4648000D03*
X4902000D03*
X5696000Y150000D03*
X5312000D03*
X5156000Y2375000D03*
X5410000D03*
X5950000Y150000D03*
G54D12*
X1039230Y-3190000D03*
X6425000Y1000000D03*
Y1400000D03*
X6585000Y1700000D03*
G54D13*
G01X18005640Y-3781070D02*
Y-3654070D01*
X18037810D01*
X18050680Y-3660420D01*
X18060330Y-3668890D01*
X18068380Y-3681580D01*
X18074810Y-3696410D01*
X18076420Y-3717570D01*
X18074810Y-3738740D01*
X18068380Y-3753560D01*
X18060330Y-3766260D01*
X18050680Y-3774720D01*
X18037810Y-3781070D01*
X18005640D01*
G01X18202740D02*
X18138400D01*
Y-3654070D01*
X18202740D01*
G01X18177000Y-3715450D02*
X18138400D01*
G01X18266330Y-3764140D02*
X18279200Y-3774720D01*
X18293680Y-3781070D01*
X18306540D01*
X18319410Y-3774720D01*
X18329070Y-3764140D01*
X18333890Y-3749320D01*
X18330680Y-3734510D01*
X18322630Y-3721800D01*
X18308150Y-3713340D01*
X18288850Y-3709100D01*
X18277590Y-3700640D01*
X18272760Y-3685820D01*
X18275980Y-3671000D01*
X18284020Y-3660420D01*
X18295280Y-3654070D01*
X18306540D01*
X18317810Y-3658300D01*
X18327460Y-3668890D01*
G01X18410350Y-3654070D02*
X18448950D01*
G01X18429650D02*
Y-3781070D01*
G01X18410350D02*
X18448950D01*
G01X18568840Y-3717570D02*
X18601020D01*
Y-3755670D01*
X18591360Y-3768370D01*
X18580100Y-3776840D01*
X18564020Y-3781070D01*
X18547930Y-3776840D01*
X18536670Y-3768370D01*
X18527020Y-3755670D01*
X18520580Y-3740850D01*
X18517360Y-3723920D01*
Y-3709100D01*
X18520580Y-3696410D01*
X18527020Y-3681580D01*
X18536670Y-3668890D01*
X18546320Y-3660420D01*
X18559190Y-3654070D01*
X18570450D01*
X18583320Y-3658300D01*
X18592970Y-3666770D01*
G01X18651730Y-3781070D02*
Y-3654070D01*
X18725730Y-3781070D01*
Y-3654070D01*
G01X18983200Y-3664650D02*
X18973550Y-3658300D01*
X18962290Y-3654070D01*
X18949420D01*
X18934940Y-3660420D01*
X18923680Y-3671000D01*
X18915640Y-3683700D01*
X18909200Y-3704870D01*
X18907590Y-3723920D01*
X18910810Y-3742970D01*
X18915640Y-3755670D01*
X18925290Y-3768370D01*
X18936550Y-3776840D01*
X18947810Y-3781070D01*
X18959070D01*
X18970330Y-3776840D01*
X18979980Y-3770490D01*
X18988030Y-3762020D01*
G01X19045180Y-3781070D02*
Y-3654070D01*
X19085390D01*
X19098260Y-3660420D01*
X19106310Y-3668890D01*
X19109520Y-3685820D01*
X19106310Y-3702750D01*
X19096650Y-3713340D01*
X19085390Y-3719690D01*
X19045180D01*
G01X19085390D02*
X19109520Y-3781070D01*
G01X19206890D02*
X19194020Y-3778950D01*
X19182760Y-3770490D01*
X19173110Y-3757790D01*
X19166670Y-3742970D01*
X19163450Y-3726040D01*
Y-3709100D01*
X19166670Y-3692170D01*
X19173110Y-3677350D01*
X19182760Y-3664650D01*
X19194020Y-3656190D01*
X19206890Y-3654070D01*
X19219760Y-3656190D01*
X19231020Y-3664650D01*
X19240670Y-3677350D01*
X19247110Y-3692170D01*
X19250330Y-3709100D01*
Y-3726040D01*
X19247110Y-3742970D01*
X19240670Y-3757790D01*
X19231020Y-3770490D01*
X19219760Y-3778950D01*
X19206890Y-3781070D01*
G01X19302650Y-3764140D02*
X19315520Y-3774720D01*
X19330000Y-3781070D01*
X19342860D01*
X19355730Y-3774720D01*
X19365390Y-3764140D01*
X19370210Y-3749320D01*
X19367000Y-3734510D01*
X19358950Y-3721800D01*
X19344470Y-3713340D01*
X19325170Y-3709100D01*
X19313910Y-3700640D01*
X19309080Y-3685820D01*
X19312300Y-3671000D01*
X19320340Y-3660420D01*
X19331600Y-3654070D01*
X19342860D01*
X19354130Y-3658300D01*
X19363780Y-3668890D01*
G01X19432190Y-3764140D02*
X19445060Y-3774720D01*
X19459540Y-3781070D01*
X19472400D01*
X19485270Y-3774720D01*
X19494930Y-3764140D01*
X19499750Y-3749320D01*
X19496540Y-3734510D01*
X19488490Y-3721800D01*
X19474010Y-3713340D01*
X19454710Y-3709100D01*
X19443450Y-3700640D01*
X19438620Y-3685820D01*
X19441840Y-3671000D01*
X19449880Y-3660420D01*
X19461140Y-3654070D01*
X19472400D01*
X19483670Y-3658300D01*
X19493320Y-3668890D01*
G01X19691270Y-3764140D02*
X19704140Y-3774720D01*
X19718620Y-3781070D01*
X19731480D01*
X19744350Y-3774720D01*
X19754010Y-3764140D01*
X19758830Y-3749320D01*
X19755620Y-3734510D01*
X19747570Y-3721800D01*
X19733090Y-3713340D01*
X19713790Y-3709100D01*
X19702530Y-3700640D01*
X19697700Y-3685820D01*
X19700920Y-3671000D01*
X19708960Y-3660420D01*
X19720220Y-3654070D01*
X19731480D01*
X19742750Y-3658300D01*
X19752400Y-3668890D01*
G01X19886760Y-3781070D02*
X19822420D01*
Y-3654070D01*
X19886760D01*
G01X19861020Y-3715450D02*
X19822420D01*
G01X20019520Y-3664650D02*
X20009870Y-3658300D01*
X19998610Y-3654070D01*
X19985740D01*
X19971260Y-3660420D01*
X19960000Y-3671000D01*
X19951960Y-3683700D01*
X19945520Y-3704870D01*
X19943910Y-3723920D01*
X19947130Y-3742970D01*
X19951960Y-3755670D01*
X19961610Y-3768370D01*
X19972870Y-3776840D01*
X19984130Y-3781070D01*
X19995390D01*
X20006650Y-3776840D01*
X20016300Y-3770490D01*
X20024350Y-3762020D01*
G01X20113670Y-3654070D02*
Y-3781070D01*
G01X20076670Y-3654070D02*
X20150670D01*
G01X20223910D02*
X20262510D01*
G01X20243210D02*
Y-3781070D01*
G01X20223910D02*
X20262510D01*
G01X20372750D02*
X20359880Y-3778950D01*
X20348620Y-3770490D01*
X20338970Y-3757790D01*
X20332530Y-3742970D01*
X20329310Y-3726040D01*
Y-3709100D01*
X20332530Y-3692170D01*
X20338970Y-3677350D01*
X20348620Y-3664650D01*
X20359880Y-3656190D01*
X20372750Y-3654070D01*
X20385620Y-3656190D01*
X20396880Y-3664650D01*
X20406530Y-3677350D01*
X20412970Y-3692170D01*
X20416190Y-3709100D01*
Y-3726040D01*
X20412970Y-3742970D01*
X20406530Y-3757790D01*
X20396880Y-3770490D01*
X20385620Y-3778950D01*
X20372750Y-3781070D01*
G01X20465290D02*
Y-3654070D01*
X20539290Y-3781070D01*
Y-3654070D01*
G01X20796760Y-3664650D02*
X20787110Y-3658300D01*
X20775850Y-3654070D01*
X20762980D01*
X20748500Y-3660420D01*
X20737240Y-3671000D01*
X20729200Y-3683700D01*
X20722760Y-3704870D01*
X20721150Y-3723920D01*
X20724370Y-3742970D01*
X20729200Y-3755670D01*
X20738850Y-3768370D01*
X20750110Y-3776840D01*
X20761370Y-3781070D01*
X20772630D01*
X20783890Y-3776840D01*
X20793540Y-3770490D01*
X20801590Y-3762020D01*
G01X20857130Y-3781070D02*
Y-3654070D01*
G01X20924690D02*
Y-3781070D01*
G01Y-3717570D02*
X20857130D01*
G01X20980230Y-3781070D02*
X21020450Y-3654070D01*
X21060670Y-3781070D01*
G01X21046190Y-3736620D02*
X20994710D01*
G01X21117820Y-3781070D02*
Y-3654070D01*
X21158030D01*
X21170900Y-3660420D01*
X21178950Y-3668890D01*
X21182160Y-3685820D01*
X21178950Y-3702750D01*
X21169290Y-3713340D01*
X21158030Y-3719690D01*
X21117820D01*
G01X21158030D02*
X21182160Y-3781070D01*
G01X21279530Y-3654070D02*
Y-3781070D01*
G01X21242530Y-3654070D02*
X21316530D01*
G01X17928000Y-3823400D02*
X18024520D01*
G01X18057540D02*
X18154060D01*
G01X18187080D02*
X18283600D01*
G01X18316620D02*
X18413140D01*
G01X18446160D02*
X18542680D01*
G01X18575700D02*
X18672220D01*
G01X18705240D02*
X18801760D01*
G01X18834780D02*
X18931300D01*
G01X18964320D02*
X19060840D01*
G01X19093860D02*
X19190380D01*
G01X19223400D02*
X19319920D01*
G01X19352940D02*
X19449460D01*
G01X19482480D02*
X19579000D01*
G01X19612020D02*
X19708540D01*
G01X19741560D02*
X19838080D01*
G01X19871100D02*
X19967620D01*
G01X20000640D02*
X20097160D01*
G01X20130180D02*
X20226700D01*
G01X20259720D02*
X20356240D01*
G01X20389260D02*
X20485780D01*
G01X20518800D02*
X20615320D01*
G01X20648340D02*
X20744860D01*
G01X20777880D02*
X20874400D01*
G01X20907420D02*
X21003940D01*
G01X21036960D02*
X21133480D01*
G01X21166500D02*
X21263020D01*
G01X21296040D02*
X21392560D01*
G01X18041030Y-3882670D02*
Y-4009670D01*
G01X18004030Y-3882670D02*
X18078030D01*
G01X18170570Y-4009670D02*
X18157700Y-4007550D01*
X18146440Y-3999090D01*
X18136790Y-3986390D01*
X18130350Y-3971570D01*
X18127130Y-3954640D01*
Y-3937700D01*
X18130350Y-3920770D01*
X18136790Y-3905950D01*
X18146440Y-3893250D01*
X18157700Y-3884790D01*
X18170570Y-3882670D01*
X18183440Y-3884790D01*
X18194700Y-3893250D01*
X18204350Y-3905950D01*
X18210790Y-3920770D01*
X18214010Y-3937700D01*
Y-3954640D01*
X18210790Y-3971570D01*
X18204350Y-3986390D01*
X18194700Y-3999090D01*
X18183440Y-4007550D01*
X18170570Y-4009670D01*
G01X18300110Y-3882670D02*
Y-4009670D01*
G01X18263110Y-3882670D02*
X18337110D01*
G01X18389430Y-4009670D02*
X18429650Y-3882670D01*
X18469870Y-4009670D01*
G01X18455390Y-3965220D02*
X18403910D01*
G01X18527020Y-3882670D02*
Y-4009670D01*
X18591360D01*
G01X18818270Y-3882670D02*
Y-4009670D01*
G01X18781270Y-3882670D02*
X18855270D01*
G01X18914030Y-4009670D02*
Y-3882670D01*
G01X18981590D02*
Y-4009670D01*
G01Y-3946170D02*
X18914030D01*
G01X19058050Y-3882670D02*
X19096650D01*
G01X19077350D02*
Y-4009670D01*
G01X19058050D02*
X19096650D01*
G01X19242280Y-3893250D02*
X19232630Y-3886900D01*
X19221370Y-3882670D01*
X19208500D01*
X19194020Y-3889020D01*
X19182760Y-3899600D01*
X19174720Y-3912300D01*
X19168280Y-3933470D01*
X19166670Y-3952520D01*
X19169890Y-3971570D01*
X19174720Y-3984270D01*
X19184370Y-3996970D01*
X19195630Y-4005440D01*
X19206890Y-4009670D01*
X19218150D01*
X19229410Y-4005440D01*
X19239060Y-3999090D01*
X19247110Y-3990620D01*
G01X19301040Y-4009670D02*
Y-3882670D01*
G01X19362170D02*
X19301040Y-3960990D01*
G01X19371820Y-4009670D02*
X19328390Y-3925010D01*
G01X19428970Y-4009670D02*
Y-3882670D01*
X19502970Y-4009670D01*
Y-3882670D01*
G01X19627680Y-4009670D02*
X19563340D01*
Y-3882670D01*
X19627680D01*
G01X19601940Y-3944050D02*
X19563340D01*
G01X19691270Y-3992740D02*
X19704140Y-4003320D01*
X19718620Y-4009670D01*
X19731480D01*
X19744350Y-4003320D01*
X19754010Y-3992740D01*
X19758830Y-3977920D01*
X19755620Y-3963110D01*
X19747570Y-3950400D01*
X19733090Y-3941940D01*
X19713790Y-3937700D01*
X19702530Y-3929240D01*
X19697700Y-3914420D01*
X19700920Y-3899600D01*
X19708960Y-3889020D01*
X19720220Y-3882670D01*
X19731480D01*
X19742750Y-3886900D01*
X19752400Y-3897490D01*
G01X19820810Y-3992740D02*
X19833680Y-4003320D01*
X19848160Y-4009670D01*
X19861020D01*
X19873890Y-4003320D01*
X19883550Y-3992740D01*
X19888370Y-3977920D01*
X19885160Y-3963110D01*
X19877110Y-3950400D01*
X19862630Y-3941940D01*
X19843330Y-3937700D01*
X19832070Y-3929240D01*
X19827240Y-3914420D01*
X19830460Y-3899600D01*
X19838500Y-3889020D01*
X19849760Y-3882670D01*
X19861020D01*
X19872290Y-3886900D01*
X19881940Y-3897490D01*
G01X20113670Y-3882670D02*
X20100800Y-3886900D01*
X20091150Y-3897490D01*
X20084710Y-3910180D01*
X20079890Y-3927120D01*
X20078280Y-3946170D01*
X20079890Y-3965220D01*
X20084710Y-3982160D01*
X20091150Y-3994860D01*
X20100800Y-4005440D01*
X20113670Y-4009670D01*
X20126540Y-4005440D01*
X20136190Y-3994860D01*
X20142630Y-3982160D01*
X20147450Y-3965220D01*
X20149060Y-3946170D01*
X20147450Y-3927120D01*
X20142630Y-3910180D01*
X20136190Y-3897490D01*
X20126540Y-3886900D01*
X20113670Y-3882670D01*
G01X20243210Y-4013900D02*
X20239990Y-4011790D01*
Y-4007550D01*
X20243210Y-4005440D01*
X20246430Y-4007550D01*
Y-4011790D01*
X20243210Y-4013900D01*
G01X20342180Y-3903840D02*
X20351840Y-3891140D01*
X20363100Y-3884790D01*
X20375970Y-3882670D01*
X20392050Y-3886900D01*
X20403320Y-3897490D01*
X20406530Y-3910180D01*
X20404920Y-3922890D01*
X20398490Y-3933470D01*
X20366320Y-3954640D01*
X20351840Y-3969450D01*
X20342180Y-3990620D01*
X20338970Y-4009670D01*
X20406530D01*
G01X20471720Y-3956760D02*
X20482990Y-3941940D01*
X20492640Y-3933470D01*
X20505510Y-3929240D01*
X20516770Y-3933470D01*
X20524810Y-3941940D01*
X20531250Y-3954640D01*
X20532860Y-3969450D01*
X20531250Y-3982160D01*
X20524810Y-3994860D01*
X20515160Y-4005440D01*
X20503900Y-4009670D01*
X20491030Y-4005440D01*
X20479770Y-3992740D01*
X20473330Y-3973690D01*
X20471720Y-3952520D01*
X20474940Y-3925010D01*
X20479770Y-3910180D01*
X20487810Y-3895370D01*
X20499070Y-3884790D01*
X20510330Y-3882670D01*
X20521590Y-3886900D01*
X20529640Y-3897490D01*
G01X20651130Y-4009670D02*
Y-3882670D01*
X20591610Y-3973690D01*
X20672050D01*
G01X20761370Y-4009670D02*
Y-3882670D01*
X20742070Y-3908070D01*
G01Y-4009670D02*
X20780670D01*
G01X20860340Y-3956760D02*
X20871610Y-3941940D01*
X20881260Y-3933470D01*
X20894130Y-3929240D01*
X20905390Y-3933470D01*
X20913430Y-3941940D01*
X20919870Y-3954640D01*
X20921480Y-3969450D01*
X20919870Y-3982160D01*
X20913430Y-3994860D01*
X20903780Y-4005440D01*
X20892520Y-4009670D01*
X20879650Y-4005440D01*
X20868390Y-3992740D01*
X20861950Y-3973690D01*
X20860340Y-3952520D01*
X20863560Y-3925010D01*
X20868390Y-3910180D01*
X20876430Y-3895370D01*
X20887690Y-3884790D01*
X20898950Y-3882670D01*
X20910210Y-3886900D01*
X20918260Y-3897490D01*
G01X21108160Y-4009670D02*
Y-3882670D01*
X21149990Y-3988500D01*
X21191820Y-3882670D01*
Y-4009670D01*
G01X21237700D02*
Y-3882670D01*
X21279530Y-3988500D01*
X21321360Y-3882670D01*
Y-4009670D01*
G01X19596780Y1942210D02*
X19469780D01*
X19495180Y1922910D01*
G01X19596780D02*
Y1961510D01*
G01X19554450Y2050840D02*
Y2092660D01*
G01X19490950Y2170720D02*
X19478250Y2180380D01*
X19471900Y2191640D01*
X19469780Y2204510D01*
X19474010Y2220590D01*
X19484600Y2231860D01*
X19497290Y2235070D01*
X19510000Y2233460D01*
X19520580Y2227030D01*
X19541750Y2194860D01*
X19556560Y2180380D01*
X19577730Y2170720D01*
X19596780Y2167510D01*
Y2235070D01*
G01X20823770Y-3478470D02*
X20894550Y-3385340D01*
G01X20859160Y-3368410D02*
Y-3495410D01*
G01X20894550Y-3478470D02*
X20823770Y-3385340D01*
G01X20810900Y-3431910D02*
X20907420D01*
G01X21214000Y-3457310D02*
X21226870Y-3467890D01*
X21241350Y-3474240D01*
X21254210D01*
X21267080Y-3467890D01*
X21276740Y-3457310D01*
X21281560Y-3442490D01*
X21278350Y-3427680D01*
X21270300Y-3414970D01*
X21255820Y-3406510D01*
X21236520Y-3402270D01*
X21225260Y-3393810D01*
X21220430Y-3378990D01*
X21223650Y-3364170D01*
X21231690Y-3353590D01*
X21242950Y-3347240D01*
X21254210D01*
X21265480Y-3351470D01*
X21275130Y-3362060D01*
G01X21341930Y-3347240D02*
Y-3438260D01*
X21348360Y-3457310D01*
X21361230Y-3470010D01*
X21377320Y-3474240D01*
X21393410Y-3470010D01*
X21406280Y-3457310D01*
X21412710Y-3438260D01*
Y-3347240D01*
G01X21474690Y-3474240D02*
Y-3347240D01*
X21514900D01*
X21527770Y-3353590D01*
X21535820Y-3362060D01*
X21539030Y-3378990D01*
X21535820Y-3395920D01*
X21526160Y-3406510D01*
X21514900Y-3412860D01*
X21474690D01*
G01X21514900D02*
X21539030Y-3474240D01*
G01X21605830D02*
Y-3347240D01*
X21666970D01*
G01X21644440Y-3408620D02*
X21605830D01*
G01X21725720Y-3474240D02*
X21765940Y-3347240D01*
X21806160Y-3474240D01*
G01X21791680Y-3429790D02*
X21740200D01*
G01X21930870Y-3357820D02*
X21921220Y-3351470D01*
X21909960Y-3347240D01*
X21897090D01*
X21882610Y-3353590D01*
X21871350Y-3364170D01*
X21863310Y-3376870D01*
X21856870Y-3398040D01*
X21855260Y-3417090D01*
X21858480Y-3436140D01*
X21863310Y-3448840D01*
X21872960Y-3461540D01*
X21884220Y-3470010D01*
X21895480Y-3474240D01*
X21906740D01*
X21918000Y-3470010D01*
X21927650Y-3463660D01*
X21935700Y-3455190D01*
G01X22057190Y-3474240D02*
X21992850D01*
Y-3347240D01*
X22057190D01*
G01X22031450Y-3408620D02*
X21992850D01*
G01X20567910Y-2885300D02*
Y-3012300D01*
X20632250D01*
G01X20699050Y-2906470D02*
X20708710Y-2893770D01*
X20719970Y-2887420D01*
X20732840Y-2885300D01*
X20748920Y-2889530D01*
X20760190Y-2900120D01*
X20763400Y-2912810D01*
X20761790Y-2925520D01*
X20755360Y-2936100D01*
X20723190Y-2957270D01*
X20708710Y-2972080D01*
X20699050Y-2993250D01*
X20695840Y-3012300D01*
X20763400D01*
G01X21001570Y-2944570D02*
X21008000Y-2938220D01*
X21012830Y-2927640D01*
X21016050Y-2912810D01*
X21012830Y-2900120D01*
X21006400Y-2891650D01*
X20995130Y-2885300D01*
X20951700D01*
Y-3012300D01*
X21004790D01*
X21016050Y-3003840D01*
X21022480Y-2991130D01*
X21025700Y-2976320D01*
X21022480Y-2961500D01*
X21012830Y-2948800D01*
X21001570Y-2944570D01*
X20951700D01*
G01X21118240Y-3012300D02*
X21105370Y-3010180D01*
X21094110Y-3001720D01*
X21084460Y-2989020D01*
X21078020Y-2974200D01*
X21074800Y-2957270D01*
Y-2940330D01*
X21078020Y-2923400D01*
X21084460Y-2908580D01*
X21094110Y-2895880D01*
X21105370Y-2887420D01*
X21118240Y-2885300D01*
X21131110Y-2887420D01*
X21142370Y-2895880D01*
X21152020Y-2908580D01*
X21158460Y-2923400D01*
X21161680Y-2940330D01*
Y-2957270D01*
X21158460Y-2974200D01*
X21152020Y-2989020D01*
X21142370Y-3001720D01*
X21131110Y-3010180D01*
X21118240Y-3012300D01*
G01X21247780Y-2885300D02*
Y-3012300D01*
G01X21210780Y-2885300D02*
X21284780D01*
G01X21377320D02*
Y-3012300D01*
G01X21340320Y-2885300D02*
X21414320D01*
G01X21506860Y-3012300D02*
X21493990Y-3010180D01*
X21482730Y-3001720D01*
X21473080Y-2989020D01*
X21466640Y-2974200D01*
X21463420Y-2957270D01*
Y-2940330D01*
X21466640Y-2923400D01*
X21473080Y-2908580D01*
X21482730Y-2895880D01*
X21493990Y-2887420D01*
X21506860Y-2885300D01*
X21519730Y-2887420D01*
X21530990Y-2895880D01*
X21540640Y-2908580D01*
X21547080Y-2923400D01*
X21550300Y-2940330D01*
Y-2957270D01*
X21547080Y-2974200D01*
X21540640Y-2989020D01*
X21530990Y-3001720D01*
X21519730Y-3010180D01*
X21506860Y-3012300D01*
G01X21594570D02*
Y-2885300D01*
X21636400Y-2991130D01*
X21678230Y-2885300D01*
Y-3012300D01*
G01X21930870Y-2895880D02*
X21921220Y-2889530D01*
X21909960Y-2885300D01*
X21897090D01*
X21882610Y-2891650D01*
X21871350Y-2902230D01*
X21863310Y-2914930D01*
X21856870Y-2936100D01*
X21855260Y-2955150D01*
X21858480Y-2974200D01*
X21863310Y-2986900D01*
X21872960Y-2999600D01*
X21884220Y-3008070D01*
X21895480Y-3012300D01*
X21906740D01*
X21918000Y-3008070D01*
X21927650Y-3001720D01*
X21935700Y-2993250D01*
G01X22025020Y-3012300D02*
X22012150Y-3010180D01*
X22000890Y-3001720D01*
X21991240Y-2989020D01*
X21984800Y-2974200D01*
X21981580Y-2957270D01*
Y-2940330D01*
X21984800Y-2923400D01*
X21991240Y-2908580D01*
X22000890Y-2895880D01*
X22012150Y-2887420D01*
X22025020Y-2885300D01*
X22037890Y-2887420D01*
X22049150Y-2895880D01*
X22058800Y-2908580D01*
X22065240Y-2923400D01*
X22068460Y-2940330D01*
Y-2957270D01*
X22065240Y-2974200D01*
X22058800Y-2989020D01*
X22049150Y-3001720D01*
X22037890Y-3010180D01*
X22025020Y-3012300D01*
G01X22117560D02*
Y-2885300D01*
X22191560Y-3012300D01*
Y-2885300D01*
G01X22248710Y-3012300D02*
Y-2885300D01*
X22280880D01*
X22293750Y-2891650D01*
X22303400Y-2900120D01*
X22311450Y-2912810D01*
X22317880Y-2927640D01*
X22319490Y-2948800D01*
X22317880Y-2969970D01*
X22311450Y-2984790D01*
X22303400Y-2997490D01*
X22293750Y-3005950D01*
X22280880Y-3012300D01*
X22248710D01*
G01X22378250Y-2885300D02*
Y-2976320D01*
X22384680Y-2995370D01*
X22397550Y-3008070D01*
X22413640Y-3012300D01*
X22429730Y-3008070D01*
X22442600Y-2995370D01*
X22449030Y-2976320D01*
Y-2885300D01*
G01X22578570Y-2895880D02*
X22568920Y-2889530D01*
X22557660Y-2885300D01*
X22544790D01*
X22530310Y-2891650D01*
X22519050Y-2902230D01*
X22511010Y-2914930D01*
X22504570Y-2936100D01*
X22502960Y-2955150D01*
X22506180Y-2974200D01*
X22511010Y-2986900D01*
X22520660Y-2999600D01*
X22531920Y-3008070D01*
X22543180Y-3012300D01*
X22554440D01*
X22565700Y-3008070D01*
X22575350Y-3001720D01*
X22583400Y-2993250D01*
G01X22672720Y-2885300D02*
Y-3012300D01*
G01X22635720Y-2885300D02*
X22709720D01*
G01X22802260Y-3012300D02*
X22789390Y-3010180D01*
X22778130Y-3001720D01*
X22768480Y-2989020D01*
X22762040Y-2974200D01*
X22758820Y-2957270D01*
Y-2940330D01*
X22762040Y-2923400D01*
X22768480Y-2908580D01*
X22778130Y-2895880D01*
X22789390Y-2887420D01*
X22802260Y-2885300D01*
X22815130Y-2887420D01*
X22826390Y-2895880D01*
X22836040Y-2908580D01*
X22842480Y-2923400D01*
X22845700Y-2940330D01*
Y-2957270D01*
X22842480Y-2974200D01*
X22836040Y-2989020D01*
X22826390Y-3001720D01*
X22815130Y-3010180D01*
X22802260Y-3012300D01*
G01X22899630D02*
Y-2885300D01*
X22939840D01*
X22952710Y-2891650D01*
X22960760Y-2900120D01*
X22963970Y-2917050D01*
X22960760Y-2933980D01*
X22951100Y-2944570D01*
X22939840Y-2950920D01*
X22899630D01*
G01X22939840D02*
X22963970Y-3012300D01*
G01X20823770Y-773210D02*
X20894550Y-680080D01*
G01X20859160Y-663150D02*
Y-790150D01*
G01X20894550Y-773210D02*
X20823770Y-680080D01*
G01X20810900Y-726650D02*
X20907420D01*
G01X21212390Y-768980D02*
Y-641980D01*
X21244560D01*
X21257430Y-648330D01*
X21267080Y-656800D01*
X21275130Y-669490D01*
X21281560Y-684320D01*
X21283170Y-705480D01*
X21281560Y-726650D01*
X21275130Y-741470D01*
X21267080Y-754170D01*
X21257430Y-762630D01*
X21244560Y-768980D01*
X21212390D01*
G01X21358020Y-641980D02*
X21396620D01*
G01X21377320D02*
Y-768980D01*
G01X21358020D02*
X21396620D01*
G01X21539030D02*
X21474690D01*
Y-641980D01*
X21539030D01*
G01X21513290Y-703360D02*
X21474690D01*
G01X21604230Y-641980D02*
Y-768980D01*
X21668570D01*
G01X21798110D02*
X21733770D01*
Y-641980D01*
X21798110D01*
G01X21772370Y-703360D02*
X21733770D01*
G01X21930870Y-652560D02*
X21921220Y-646210D01*
X21909960Y-641980D01*
X21897090D01*
X21882610Y-648330D01*
X21871350Y-658910D01*
X21863310Y-671610D01*
X21856870Y-692780D01*
X21855260Y-711830D01*
X21858480Y-730880D01*
X21863310Y-743580D01*
X21872960Y-756280D01*
X21884220Y-764750D01*
X21895480Y-768980D01*
X21906740D01*
X21918000Y-764750D01*
X21927650Y-758400D01*
X21935700Y-749930D01*
G01X22025020Y-641980D02*
Y-768980D01*
G01X21988020Y-641980D02*
X22062020D01*
G01X22122390Y-768980D02*
Y-641980D01*
X22162600D01*
X22175470Y-648330D01*
X22183520Y-656800D01*
X22186730Y-673730D01*
X22183520Y-690660D01*
X22173860Y-701250D01*
X22162600Y-707600D01*
X22122390D01*
G01X22162600D02*
X22186730Y-768980D01*
G01X22264800Y-641980D02*
X22303400D01*
G01X22284100D02*
Y-768980D01*
G01X22264800D02*
X22303400D01*
G01X22449030Y-652560D02*
X22439380Y-646210D01*
X22428120Y-641980D01*
X22415250D01*
X22400770Y-648330D01*
X22389510Y-658910D01*
X22381470Y-671610D01*
X22375030Y-692780D01*
X22373420Y-711830D01*
X22376640Y-730880D01*
X22381470Y-743580D01*
X22391120Y-756280D01*
X22402380Y-764750D01*
X22413640Y-768980D01*
X22424900D01*
X22436160Y-764750D01*
X22445810Y-758400D01*
X22453860Y-749930D01*
G01X20823770Y1805050D02*
X20894550Y1898180D01*
G01X20859160Y1915110D02*
Y1788110D01*
G01X20894550Y1805050D02*
X20823770Y1898180D01*
G01X20810900Y1851610D02*
X20907420D01*
G01X21214000Y1826210D02*
X21226870Y1815630D01*
X21241350Y1809280D01*
X21254210D01*
X21267080Y1815630D01*
X21276740Y1826210D01*
X21281560Y1841030D01*
X21278350Y1855840D01*
X21270300Y1868550D01*
X21255820Y1877010D01*
X21236520Y1881250D01*
X21225260Y1889710D01*
X21220430Y1904530D01*
X21223650Y1919350D01*
X21231690Y1929930D01*
X21242950Y1936280D01*
X21254210D01*
X21265480Y1932050D01*
X21275130Y1921460D01*
G01X21341930Y1936280D02*
Y1845260D01*
X21348360Y1826210D01*
X21361230Y1813510D01*
X21377320Y1809280D01*
X21393410Y1813510D01*
X21406280Y1826210D01*
X21412710Y1845260D01*
Y1936280D01*
G01X21474690Y1809280D02*
Y1936280D01*
X21514900D01*
X21527770Y1929930D01*
X21535820Y1921460D01*
X21539030Y1904530D01*
X21535820Y1887600D01*
X21526160Y1877010D01*
X21514900Y1870660D01*
X21474690D01*
G01X21514900D02*
X21539030Y1809280D01*
G01X21605830D02*
Y1936280D01*
X21666970D01*
G01X21644440Y1874900D02*
X21605830D01*
G01X21725720Y1809280D02*
X21765940Y1936280D01*
X21806160Y1809280D01*
G01X21791680Y1853730D02*
X21740200D01*
G01X21930870Y1925700D02*
X21921220Y1932050D01*
X21909960Y1936280D01*
X21897090D01*
X21882610Y1929930D01*
X21871350Y1919350D01*
X21863310Y1906650D01*
X21856870Y1885480D01*
X21855260Y1866430D01*
X21858480Y1847380D01*
X21863310Y1834680D01*
X21872960Y1821980D01*
X21884220Y1813510D01*
X21895480Y1809280D01*
X21906740D01*
X21918000Y1813510D01*
X21927650Y1819860D01*
X21935700Y1828330D01*
G01X22057190Y1809280D02*
X21992850D01*
Y1936280D01*
X22057190D01*
G01X22031450Y1874900D02*
X21992850D01*
G01X20567910Y1601350D02*
Y1474350D01*
X20632250D01*
G01X20729620D02*
Y1601350D01*
X20710320Y1575950D01*
G01Y1474350D02*
X20748920D01*
G01X20988700Y1601350D02*
Y1474350D01*
G01X20951700Y1601350D02*
X21025700D01*
G01X21118240Y1474350D02*
X21105370Y1476470D01*
X21094110Y1484930D01*
X21084460Y1497630D01*
X21078020Y1512450D01*
X21074800Y1529380D01*
Y1546320D01*
X21078020Y1563250D01*
X21084460Y1578070D01*
X21094110Y1590770D01*
X21105370Y1599230D01*
X21118240Y1601350D01*
X21131110Y1599230D01*
X21142370Y1590770D01*
X21152020Y1578070D01*
X21158460Y1563250D01*
X21161680Y1546320D01*
Y1529380D01*
X21158460Y1512450D01*
X21152020Y1497630D01*
X21142370Y1484930D01*
X21131110Y1476470D01*
X21118240Y1474350D01*
G01X21215610D02*
Y1601350D01*
X21254210D01*
X21267080Y1595000D01*
X21276740Y1580180D01*
X21279950Y1563250D01*
X21276740Y1546320D01*
X21268690Y1533620D01*
X21254210Y1527260D01*
X21215610D01*
G01X21542250Y1590770D02*
X21532600Y1597120D01*
X21521340Y1601350D01*
X21508470D01*
X21493990Y1595000D01*
X21482730Y1584420D01*
X21474690Y1571720D01*
X21468250Y1550550D01*
X21466640Y1531500D01*
X21469860Y1512450D01*
X21474690Y1499750D01*
X21484340Y1487050D01*
X21495600Y1478580D01*
X21506860Y1474350D01*
X21518120D01*
X21529380Y1478580D01*
X21539030Y1484930D01*
X21547080Y1493400D01*
G01X21636400Y1474350D02*
X21623530Y1476470D01*
X21612270Y1484930D01*
X21602620Y1497630D01*
X21596180Y1512450D01*
X21592960Y1529380D01*
Y1546320D01*
X21596180Y1563250D01*
X21602620Y1578070D01*
X21612270Y1590770D01*
X21623530Y1599230D01*
X21636400Y1601350D01*
X21649270Y1599230D01*
X21660530Y1590770D01*
X21670180Y1578070D01*
X21676620Y1563250D01*
X21679840Y1546320D01*
Y1529380D01*
X21676620Y1512450D01*
X21670180Y1497630D01*
X21660530Y1484930D01*
X21649270Y1476470D01*
X21636400Y1474350D01*
G01X21728940D02*
Y1601350D01*
X21802940Y1474350D01*
Y1601350D01*
G01X21860090Y1474350D02*
Y1601350D01*
X21892260D01*
X21905130Y1595000D01*
X21914780Y1586530D01*
X21922830Y1573840D01*
X21929260Y1559010D01*
X21930870Y1537850D01*
X21929260Y1516680D01*
X21922830Y1501860D01*
X21914780Y1489160D01*
X21905130Y1480700D01*
X21892260Y1474350D01*
X21860090D01*
G01X21989630Y1601350D02*
Y1510330D01*
X21996060Y1491280D01*
X22008930Y1478580D01*
X22025020Y1474350D01*
X22041110Y1478580D01*
X22053980Y1491280D01*
X22060410Y1510330D01*
Y1601350D01*
G01X22189950Y1590770D02*
X22180300Y1597120D01*
X22169040Y1601350D01*
X22156170D01*
X22141690Y1595000D01*
X22130430Y1584420D01*
X22122390Y1571720D01*
X22115950Y1550550D01*
X22114340Y1531500D01*
X22117560Y1512450D01*
X22122390Y1499750D01*
X22132040Y1487050D01*
X22143300Y1478580D01*
X22154560Y1474350D01*
X22165820D01*
X22177080Y1478580D01*
X22186730Y1484930D01*
X22194780Y1493400D01*
G01X22284100Y1601350D02*
Y1474350D01*
G01X22247100Y1601350D02*
X22321100D01*
G01X22413640Y1474350D02*
X22400770Y1476470D01*
X22389510Y1484930D01*
X22379860Y1497630D01*
X22373420Y1512450D01*
X22370200Y1529380D01*
Y1546320D01*
X22373420Y1563250D01*
X22379860Y1578070D01*
X22389510Y1590770D01*
X22400770Y1599230D01*
X22413640Y1601350D01*
X22426510Y1599230D01*
X22437770Y1590770D01*
X22447420Y1578070D01*
X22453860Y1563250D01*
X22457080Y1546320D01*
Y1529380D01*
X22453860Y1512450D01*
X22447420Y1497630D01*
X22437770Y1484930D01*
X22426510Y1476470D01*
X22413640Y1474350D01*
G01X22511010D02*
Y1601350D01*
X22551220D01*
X22564090Y1595000D01*
X22572140Y1586530D01*
X22575350Y1569600D01*
X22572140Y1552670D01*
X22562480Y1542080D01*
X22551220Y1535730D01*
X22511010D01*
G01X22551220D02*
X22575350Y1474350D01*
G01X-3537300Y-14237700D02*
Y7352300D01*
X24593200D01*
Y-14237700D01*
X-3537300D01*
G01X-2788000Y-13564600D02*
Y6755400D01*
X23755000D01*
Y-13564600D01*
X-2788000D01*
G01X-102500Y-4142500D02*
Y-317500D01*
X17614000D01*
Y-4142500D01*
X-102500D01*
G01Y-3507500D02*
X17614000D01*
G01X-102500Y-2872500D02*
X17614000D01*
G01X-102500Y-2237500D02*
X17614000D01*
G01X-102500Y-1602500D02*
X17614000D01*
G01X-102500Y-967500D02*
X17614000D01*
G01X0Y0D02*
Y2540000D01*
X7620000D01*
Y0D01*
X0D01*
G01Y2790000D02*
Y3225000D01*
G01X3046060Y2975000D02*
X0D01*
G01X400000Y3037500D02*
X0Y2975000D01*
X400000Y2912500D01*
Y3037500D01*
G01X2180960Y-1602500D02*
Y-4142500D01*
G01X3955700Y-13539200D02*
Y-8967200D01*
X23767700D01*
G01X4163890Y-12078700D02*
Y-11951700D01*
X4225030D01*
G01X4202500Y-12013080D02*
X4163890D01*
G01X4291830Y-12078700D02*
Y-11951700D01*
X4332040D01*
X4344910Y-11958050D01*
X4352960Y-11966520D01*
X4356170Y-11983450D01*
X4352960Y-12000380D01*
X4343300Y-12010970D01*
X4332040Y-12017320D01*
X4291830D01*
G01X4332040D02*
X4356170Y-12078700D01*
G01X4413320D02*
X4453540Y-11951700D01*
X4493760Y-12078700D01*
G01X4479280Y-12034250D02*
X4427800D01*
G01X4618470Y-11962280D02*
X4608820Y-11955930D01*
X4597560Y-11951700D01*
X4584690D01*
X4570210Y-11958050D01*
X4558950Y-11968630D01*
X4550910Y-11981330D01*
X4544470Y-12002500D01*
X4542860Y-12021550D01*
X4546080Y-12040600D01*
X4550910Y-12053300D01*
X4560560Y-12066000D01*
X4571820Y-12074470D01*
X4583080Y-12078700D01*
X4594340D01*
X4605600Y-12074470D01*
X4615250Y-12068120D01*
X4623300Y-12059650D01*
G01X4712620Y-11951700D02*
Y-12078700D01*
G01X4675620Y-11951700D02*
X4749620D01*
G01X4822860D02*
X4861460D01*
G01X4842160D02*
Y-12078700D01*
G01X4822860D02*
X4861460D01*
G01X4971700D02*
X4958830Y-12076580D01*
X4947570Y-12068120D01*
X4937920Y-12055420D01*
X4931480Y-12040600D01*
X4928260Y-12023670D01*
Y-12006730D01*
X4931480Y-11989800D01*
X4937920Y-11974980D01*
X4947570Y-11962280D01*
X4958830Y-11953820D01*
X4971700Y-11951700D01*
X4984570Y-11953820D01*
X4995830Y-11962280D01*
X5005480Y-11974980D01*
X5011920Y-11989800D01*
X5015140Y-12006730D01*
Y-12023670D01*
X5011920Y-12040600D01*
X5005480Y-12055420D01*
X4995830Y-12068120D01*
X4984570Y-12076580D01*
X4971700Y-12078700D01*
G01X5064240D02*
Y-11951700D01*
X5138240Y-12078700D01*
Y-11951700D01*
G01X5197000Y-12061770D02*
X5209870Y-12072350D01*
X5224350Y-12078700D01*
X5237210D01*
X5250080Y-12072350D01*
X5259740Y-12061770D01*
X5264560Y-12046950D01*
X5261350Y-12032140D01*
X5253300Y-12019430D01*
X5238820Y-12010970D01*
X5219520Y-12006730D01*
X5208260Y-11998270D01*
X5203430Y-11983450D01*
X5206650Y-11968630D01*
X5214690Y-11958050D01*
X5225950Y-11951700D01*
X5237210D01*
X5248480Y-11955930D01*
X5258130Y-11966520D01*
G01X5472160Y-12036370D02*
X5510770D01*
G01X5489860Y-12008850D02*
Y-12063890D01*
G01X4154240Y-11697700D02*
X4194460Y-11570700D01*
X4234680Y-11697700D01*
G01X4220200Y-11653250D02*
X4168720D01*
G01X4287000Y-11697700D02*
Y-11570700D01*
X4361000Y-11697700D01*
Y-11570700D01*
G01X4463190Y-11634200D02*
X4495370D01*
Y-11672300D01*
X4485710Y-11685000D01*
X4474450Y-11693470D01*
X4458370Y-11697700D01*
X4442280Y-11693470D01*
X4431020Y-11685000D01*
X4421370Y-11672300D01*
X4414930Y-11657480D01*
X4411710Y-11640550D01*
Y-11625730D01*
X4414930Y-11613040D01*
X4421370Y-11598210D01*
X4431020Y-11585520D01*
X4440670Y-11577050D01*
X4453540Y-11570700D01*
X4464800D01*
X4477670Y-11574930D01*
X4487320Y-11583400D01*
G01X4550910Y-11570700D02*
Y-11697700D01*
X4615250D01*
G01X4744790D02*
X4680450D01*
Y-11570700D01*
X4744790D01*
G01X4719050Y-11632080D02*
X4680450D01*
G01X4808380Y-11680770D02*
X4821250Y-11691350D01*
X4835730Y-11697700D01*
X4848590D01*
X4861460Y-11691350D01*
X4871120Y-11680770D01*
X4875940Y-11665950D01*
X4872730Y-11651140D01*
X4864680Y-11638430D01*
X4850200Y-11629970D01*
X4830900Y-11625730D01*
X4819640Y-11617270D01*
X4814810Y-11602450D01*
X4818030Y-11587630D01*
X4826070Y-11577050D01*
X4837330Y-11570700D01*
X4848590D01*
X4859860Y-11574930D01*
X4869510Y-11585520D01*
G01X5083540Y-11655370D02*
X5122150D01*
G01X5101240Y-11627850D02*
Y-11682890D01*
G01X4159070Y-11291300D02*
X4168720Y-11306120D01*
X4181590Y-11314580D01*
X4196070Y-11316700D01*
X4208940Y-11314580D01*
X4221810Y-11304000D01*
X4229850Y-11291300D01*
X4231460Y-11278600D01*
X4228240Y-11263790D01*
X4216980Y-11253200D01*
X4205720Y-11248970D01*
X4191240D01*
G01X4205720D02*
X4215370Y-11242620D01*
X4223420Y-11232040D01*
X4226630Y-11219330D01*
X4223420Y-11206630D01*
X4215370Y-11196050D01*
X4200890Y-11189700D01*
X4186420Y-11191820D01*
X4171940Y-11200280D01*
G01X4421370Y-11316700D02*
Y-11189700D01*
X4459970D01*
X4472840Y-11196050D01*
X4482500Y-11210870D01*
X4485710Y-11227800D01*
X4482500Y-11244730D01*
X4474450Y-11257430D01*
X4459970Y-11263790D01*
X4421370D01*
G01X4550910Y-11189700D02*
Y-11316700D01*
X4615250D01*
G01X4806770D02*
Y-11189700D01*
X4838940D01*
X4851810Y-11196050D01*
X4861460Y-11204520D01*
X4869510Y-11217210D01*
X4875940Y-11232040D01*
X4877550Y-11253200D01*
X4875940Y-11274370D01*
X4869510Y-11289190D01*
X4861460Y-11301890D01*
X4851810Y-11310350D01*
X4838940Y-11316700D01*
X4806770D01*
G01X5003870D02*
X4939530D01*
Y-11189700D01*
X5003870D01*
G01X4978130Y-11251080D02*
X4939530D01*
G01X5136630Y-11200280D02*
X5126980Y-11193930D01*
X5115720Y-11189700D01*
X5102850D01*
X5088370Y-11196050D01*
X5077110Y-11206630D01*
X5069070Y-11219330D01*
X5062630Y-11240500D01*
X5061020Y-11259550D01*
X5064240Y-11278600D01*
X5069070Y-11291300D01*
X5078720Y-11304000D01*
X5089980Y-11312470D01*
X5101240Y-11316700D01*
X5112500D01*
X5123760Y-11312470D01*
X5133410Y-11306120D01*
X5141460Y-11297650D01*
G01X5211480Y-11189700D02*
X5250080D01*
G01X5230780D02*
Y-11316700D01*
G01X5211480D02*
X5250080D01*
G01X5318490D02*
Y-11189700D01*
X5360320Y-11295530D01*
X5402150Y-11189700D01*
Y-11316700D01*
G01X5449640D02*
X5489860Y-11189700D01*
X5530080Y-11316700D01*
G01X5515600Y-11272250D02*
X5464120D01*
G01X5587230Y-11189700D02*
Y-11316700D01*
X5651570D01*
G01X5715160Y-11299770D02*
X5728030Y-11310350D01*
X5742510Y-11316700D01*
X5755370D01*
X5768240Y-11310350D01*
X5777900Y-11299770D01*
X5782720Y-11284950D01*
X5779510Y-11270140D01*
X5771460Y-11257430D01*
X5756980Y-11248970D01*
X5737680Y-11244730D01*
X5726420Y-11236270D01*
X5721590Y-11221450D01*
X5724810Y-11206630D01*
X5732850Y-11196050D01*
X5744110Y-11189700D01*
X5755370D01*
X5766640Y-11193930D01*
X5776290Y-11204520D01*
G01X5990320Y-11274370D02*
X6028930D01*
G01X6008020Y-11246850D02*
Y-11301890D01*
G01X4163890Y-10829870D02*
X4173550Y-10817170D01*
X4184810Y-10810820D01*
X4197680Y-10808700D01*
X4213760Y-10812930D01*
X4225030Y-10823520D01*
X4228240Y-10836210D01*
X4226630Y-10848920D01*
X4220200Y-10859500D01*
X4188030Y-10880670D01*
X4173550Y-10895480D01*
X4163890Y-10916650D01*
X4160680Y-10935700D01*
X4228240D01*
G01X4421370D02*
Y-10808700D01*
X4459970D01*
X4472840Y-10815050D01*
X4482500Y-10829870D01*
X4485710Y-10846800D01*
X4482500Y-10863730D01*
X4474450Y-10876430D01*
X4459970Y-10882790D01*
X4421370D01*
G01X4550910Y-10808700D02*
Y-10935700D01*
X4615250D01*
G01X4806770D02*
Y-10808700D01*
X4838940D01*
X4851810Y-10815050D01*
X4861460Y-10823520D01*
X4869510Y-10836210D01*
X4875940Y-10851040D01*
X4877550Y-10872200D01*
X4875940Y-10893370D01*
X4869510Y-10908190D01*
X4861460Y-10920890D01*
X4851810Y-10929350D01*
X4838940Y-10935700D01*
X4806770D01*
G01X5003870D02*
X4939530D01*
Y-10808700D01*
X5003870D01*
G01X4978130Y-10870080D02*
X4939530D01*
G01X5136630Y-10819280D02*
X5126980Y-10812930D01*
X5115720Y-10808700D01*
X5102850D01*
X5088370Y-10815050D01*
X5077110Y-10825630D01*
X5069070Y-10838330D01*
X5062630Y-10859500D01*
X5061020Y-10878550D01*
X5064240Y-10897600D01*
X5069070Y-10910300D01*
X5078720Y-10923000D01*
X5089980Y-10931470D01*
X5101240Y-10935700D01*
X5112500D01*
X5123760Y-10931470D01*
X5133410Y-10925120D01*
X5141460Y-10916650D01*
G01X5211480Y-10808700D02*
X5250080D01*
G01X5230780D02*
Y-10935700D01*
G01X5211480D02*
X5250080D01*
G01X5318490D02*
Y-10808700D01*
X5360320Y-10914530D01*
X5402150Y-10808700D01*
Y-10935700D01*
G01X5449640D02*
X5489860Y-10808700D01*
X5530080Y-10935700D01*
G01X5515600Y-10891250D02*
X5464120D01*
G01X5587230Y-10808700D02*
Y-10935700D01*
X5651570D01*
G01X5715160Y-10918770D02*
X5728030Y-10929350D01*
X5742510Y-10935700D01*
X5755370D01*
X5768240Y-10929350D01*
X5777900Y-10918770D01*
X5782720Y-10903950D01*
X5779510Y-10889140D01*
X5771460Y-10876430D01*
X5756980Y-10867970D01*
X5737680Y-10863730D01*
X5726420Y-10855270D01*
X5721590Y-10840450D01*
X5724810Y-10825630D01*
X5732850Y-10815050D01*
X5744110Y-10808700D01*
X5755370D01*
X5766640Y-10812930D01*
X5776290Y-10823520D01*
G01X5990320Y-10893370D02*
X6028930D01*
G01X6008020Y-10865850D02*
Y-10920890D01*
G01X4194460Y-10427700D02*
Y-10554700D01*
G01X4157460Y-10427700D02*
X4231460D01*
G01X4324000Y-10554700D02*
X4311130Y-10552580D01*
X4299870Y-10544120D01*
X4290220Y-10531420D01*
X4283780Y-10516600D01*
X4280560Y-10499670D01*
Y-10482730D01*
X4283780Y-10465800D01*
X4290220Y-10450980D01*
X4299870Y-10438280D01*
X4311130Y-10429820D01*
X4324000Y-10427700D01*
X4336870Y-10429820D01*
X4348130Y-10438280D01*
X4357780Y-10450980D01*
X4364220Y-10465800D01*
X4367440Y-10482730D01*
Y-10499670D01*
X4364220Y-10516600D01*
X4357780Y-10531420D01*
X4348130Y-10544120D01*
X4336870Y-10552580D01*
X4324000Y-10554700D01*
G01X4421370Y-10427700D02*
Y-10554700D01*
X4485710D01*
G01X4615250D02*
X4550910D01*
Y-10427700D01*
X4615250D01*
G01X4589510Y-10489080D02*
X4550910D01*
G01X4680450Y-10554700D02*
Y-10427700D01*
X4720660D01*
X4733530Y-10434050D01*
X4741580Y-10442520D01*
X4744790Y-10459450D01*
X4741580Y-10476380D01*
X4731920Y-10486970D01*
X4720660Y-10493320D01*
X4680450D01*
G01X4720660D02*
X4744790Y-10554700D01*
G01X4801940D02*
X4842160Y-10427700D01*
X4882380Y-10554700D01*
G01X4867900Y-10510250D02*
X4816420D01*
G01X4934700Y-10554700D02*
Y-10427700D01*
X5008700Y-10554700D01*
Y-10427700D01*
G01X5136630Y-10438280D02*
X5126980Y-10431930D01*
X5115720Y-10427700D01*
X5102850D01*
X5088370Y-10434050D01*
X5077110Y-10444630D01*
X5069070Y-10457330D01*
X5062630Y-10478500D01*
X5061020Y-10497550D01*
X5064240Y-10516600D01*
X5069070Y-10529300D01*
X5078720Y-10542000D01*
X5089980Y-10550470D01*
X5101240Y-10554700D01*
X5112500D01*
X5123760Y-10550470D01*
X5133410Y-10544120D01*
X5141460Y-10535650D01*
G01X5262950Y-10554700D02*
X5198610D01*
Y-10427700D01*
X5262950D01*
G01X5237210Y-10489080D02*
X5198610D01*
G01X5326540Y-10537770D02*
X5339410Y-10548350D01*
X5353890Y-10554700D01*
X5366750D01*
X5379620Y-10548350D01*
X5389280Y-10537770D01*
X5394100Y-10522950D01*
X5390890Y-10508140D01*
X5382840Y-10495430D01*
X5368360Y-10486970D01*
X5349060Y-10482730D01*
X5337800Y-10474270D01*
X5332970Y-10459450D01*
X5336190Y-10444630D01*
X5344230Y-10434050D01*
X5355490Y-10427700D01*
X5366750D01*
X5378020Y-10431930D01*
X5387670Y-10442520D01*
G01X5619400Y-10554700D02*
X5606530Y-10552580D01*
X5595270Y-10544120D01*
X5585620Y-10531420D01*
X5579180Y-10516600D01*
X5575960Y-10499670D01*
Y-10482730D01*
X5579180Y-10465800D01*
X5585620Y-10450980D01*
X5595270Y-10438280D01*
X5606530Y-10429820D01*
X5619400Y-10427700D01*
X5632270Y-10429820D01*
X5643530Y-10438280D01*
X5653180Y-10450980D01*
X5659620Y-10465800D01*
X5662840Y-10482730D01*
Y-10499670D01*
X5659620Y-10516600D01*
X5653180Y-10531420D01*
X5643530Y-10544120D01*
X5632270Y-10552580D01*
X5619400Y-10554700D01*
G01X5711940D02*
Y-10427700D01*
X5785940Y-10554700D01*
Y-10427700D01*
G01X5878480Y-10558930D02*
X5875260Y-10556820D01*
Y-10552580D01*
X5878480Y-10550470D01*
X5881700Y-10552580D01*
Y-10556820D01*
X5878480Y-10558930D01*
G01Y-10501790D02*
X5875260Y-10499670D01*
Y-10495430D01*
X5878480Y-10493320D01*
X5881700Y-10495430D01*
Y-10499670D01*
X5878480Y-10501790D01*
G01X4159070Y-10110200D02*
Y-9983200D01*
X4191240D01*
X4204110Y-9989550D01*
X4213760Y-9998020D01*
X4221810Y-10010710D01*
X4228240Y-10025540D01*
X4229850Y-10046700D01*
X4228240Y-10067870D01*
X4221810Y-10082690D01*
X4213760Y-10095390D01*
X4204110Y-10103850D01*
X4191240Y-10110200D01*
X4159070D01*
G01X4304700Y-9983200D02*
X4343300D01*
G01X4324000D02*
Y-10110200D01*
G01X4304700D02*
X4343300D01*
G01X4411710D02*
Y-9983200D01*
X4453540Y-10089030D01*
X4495370Y-9983200D01*
Y-10110200D01*
G01X4615250D02*
X4550910D01*
Y-9983200D01*
X4615250D01*
G01X4589510Y-10044580D02*
X4550910D01*
G01X4675620Y-10110200D02*
Y-9983200D01*
X4749620Y-10110200D01*
Y-9983200D01*
G01X4808380Y-10093270D02*
X4821250Y-10103850D01*
X4835730Y-10110200D01*
X4848590D01*
X4861460Y-10103850D01*
X4871120Y-10093270D01*
X4875940Y-10078450D01*
X4872730Y-10063640D01*
X4864680Y-10050930D01*
X4850200Y-10042470D01*
X4830900Y-10038230D01*
X4819640Y-10029770D01*
X4814810Y-10014950D01*
X4818030Y-10000130D01*
X4826070Y-9989550D01*
X4837330Y-9983200D01*
X4848590D01*
X4859860Y-9987430D01*
X4869510Y-9998020D01*
G01X4952400Y-9983200D02*
X4991000D01*
G01X4971700D02*
Y-10110200D01*
G01X4952400D02*
X4991000D01*
G01X5101240D02*
X5088370Y-10108080D01*
X5077110Y-10099620D01*
X5067460Y-10086920D01*
X5061020Y-10072100D01*
X5057800Y-10055170D01*
Y-10038230D01*
X5061020Y-10021300D01*
X5067460Y-10006480D01*
X5077110Y-9993780D01*
X5088370Y-9985320D01*
X5101240Y-9983200D01*
X5114110Y-9985320D01*
X5125370Y-9993780D01*
X5135020Y-10006480D01*
X5141460Y-10021300D01*
X5144680Y-10038230D01*
Y-10055170D01*
X5141460Y-10072100D01*
X5135020Y-10086920D01*
X5125370Y-10099620D01*
X5114110Y-10108080D01*
X5101240Y-10110200D01*
G01X5193780D02*
Y-9983200D01*
X5267780Y-10110200D01*
Y-9983200D01*
G01X5326540Y-10093270D02*
X5339410Y-10103850D01*
X5353890Y-10110200D01*
X5366750D01*
X5379620Y-10103850D01*
X5389280Y-10093270D01*
X5394100Y-10078450D01*
X5390890Y-10063640D01*
X5382840Y-10050930D01*
X5368360Y-10042470D01*
X5349060Y-10038230D01*
X5337800Y-10029770D01*
X5332970Y-10014950D01*
X5336190Y-10000130D01*
X5344230Y-9989550D01*
X5355490Y-9983200D01*
X5366750D01*
X5378020Y-9987430D01*
X5387670Y-9998020D01*
G01X5579180Y-10110200D02*
X5619400Y-9983200D01*
X5659620Y-10110200D01*
G01X5645140Y-10065750D02*
X5593660D01*
G01X5716770Y-10110200D02*
Y-9983200D01*
X5756980D01*
X5769850Y-9989550D01*
X5777900Y-9998020D01*
X5781110Y-10014950D01*
X5777900Y-10031880D01*
X5768240Y-10042470D01*
X5756980Y-10048820D01*
X5716770D01*
G01X5756980D02*
X5781110Y-10110200D01*
G01X5910650D02*
X5846310D01*
Y-9983200D01*
X5910650D01*
G01X5884910Y-10044580D02*
X5846310D01*
G01X6118260Y-9983200D02*
X6156860D01*
G01X6137560D02*
Y-10110200D01*
G01X6118260D02*
X6156860D01*
G01X6230100D02*
Y-9983200D01*
X6304100Y-10110200D01*
Y-9983200D01*
G01X6506880D02*
X6545480D01*
G01X6526180D02*
Y-10110200D01*
G01X6506880D02*
X6545480D01*
G01X6618720D02*
Y-9983200D01*
X6692720Y-10110200D01*
Y-9983200D01*
G01X6820650Y-9993780D02*
X6811000Y-9987430D01*
X6799740Y-9983200D01*
X6786870D01*
X6772390Y-9989550D01*
X6761130Y-10000130D01*
X6753090Y-10012830D01*
X6746650Y-10034000D01*
X6745040Y-10053050D01*
X6748260Y-10072100D01*
X6753090Y-10084800D01*
X6762740Y-10097500D01*
X6774000Y-10105970D01*
X6785260Y-10110200D01*
X6796520D01*
X6807780Y-10105970D01*
X6817430Y-10099620D01*
X6825480Y-10091150D01*
G01X6881020Y-10110200D02*
Y-9983200D01*
G01X6948580D02*
Y-10110200D01*
G01Y-10046700D02*
X6881020D01*
G01X7076510Y-10110200D02*
X7012170D01*
Y-9983200D01*
X7076510D01*
G01X7050770Y-10044580D02*
X7012170D01*
G01X7140100Y-10093270D02*
X7152970Y-10103850D01*
X7167450Y-10110200D01*
X7180310D01*
X7193180Y-10103850D01*
X7202840Y-10093270D01*
X7207660Y-10078450D01*
X7204450Y-10063640D01*
X7196400Y-10050930D01*
X7181920Y-10042470D01*
X7162620Y-10038230D01*
X7151360Y-10029770D01*
X7146530Y-10014950D01*
X7149750Y-10000130D01*
X7157790Y-9989550D01*
X7169050Y-9983200D01*
X7180310D01*
X7191580Y-9987430D01*
X7201230Y-9998020D01*
G01X4159070Y-9284700D02*
Y-9375720D01*
X4165500Y-9394770D01*
X4178370Y-9407470D01*
X4194460Y-9411700D01*
X4210550Y-9407470D01*
X4223420Y-9394770D01*
X4229850Y-9375720D01*
Y-9284700D01*
G01X4287000Y-9411700D02*
Y-9284700D01*
X4361000Y-9411700D01*
Y-9284700D01*
G01X4421370D02*
Y-9411700D01*
X4485710D01*
G01X4615250D02*
X4550910D01*
Y-9284700D01*
X4615250D01*
G01X4589510Y-9346080D02*
X4550910D01*
G01X4678840Y-9394770D02*
X4691710Y-9405350D01*
X4706190Y-9411700D01*
X4719050D01*
X4731920Y-9405350D01*
X4741580Y-9394770D01*
X4746400Y-9379950D01*
X4743190Y-9365140D01*
X4735140Y-9352430D01*
X4720660Y-9343970D01*
X4701360Y-9339730D01*
X4690100Y-9331270D01*
X4685270Y-9316450D01*
X4688490Y-9301630D01*
X4696530Y-9291050D01*
X4707790Y-9284700D01*
X4719050D01*
X4730320Y-9288930D01*
X4739970Y-9299520D01*
G01X4808380Y-9394770D02*
X4821250Y-9405350D01*
X4835730Y-9411700D01*
X4848590D01*
X4861460Y-9405350D01*
X4871120Y-9394770D01*
X4875940Y-9379950D01*
X4872730Y-9365140D01*
X4864680Y-9352430D01*
X4850200Y-9343970D01*
X4830900Y-9339730D01*
X4819640Y-9331270D01*
X4814810Y-9316450D01*
X4818030Y-9301630D01*
X4826070Y-9291050D01*
X4837330Y-9284700D01*
X4848590D01*
X4859860Y-9288930D01*
X4869510Y-9299520D01*
G01X5101240Y-9411700D02*
X5088370Y-9409580D01*
X5077110Y-9401120D01*
X5067460Y-9388420D01*
X5061020Y-9373600D01*
X5057800Y-9356670D01*
Y-9339730D01*
X5061020Y-9322800D01*
X5067460Y-9307980D01*
X5077110Y-9295280D01*
X5088370Y-9286820D01*
X5101240Y-9284700D01*
X5114110Y-9286820D01*
X5125370Y-9295280D01*
X5135020Y-9307980D01*
X5141460Y-9322800D01*
X5144680Y-9339730D01*
Y-9356670D01*
X5141460Y-9373600D01*
X5135020Y-9388420D01*
X5125370Y-9401120D01*
X5114110Y-9409580D01*
X5101240Y-9411700D01*
G01X5230780Y-9284700D02*
Y-9411700D01*
G01X5193780Y-9284700D02*
X5267780D01*
G01X5326540Y-9411700D02*
Y-9284700D01*
G01X5394100D02*
Y-9411700D01*
G01Y-9348200D02*
X5326540D01*
G01X5522030Y-9411700D02*
X5457690D01*
Y-9284700D01*
X5522030D01*
G01X5496290Y-9346080D02*
X5457690D01*
G01X5587230Y-9411700D02*
Y-9284700D01*
X5627440D01*
X5640310Y-9291050D01*
X5648360Y-9299520D01*
X5651570Y-9316450D01*
X5648360Y-9333380D01*
X5638700Y-9343970D01*
X5627440Y-9350320D01*
X5587230D01*
G01X5627440D02*
X5651570Y-9411700D01*
G01X5700680Y-9284700D02*
X5723200Y-9411700D01*
X5748940Y-9284700D01*
X5774680Y-9411700D01*
X5797200Y-9284700D01*
G01X5859180D02*
X5897780D01*
G01X5878480D02*
Y-9411700D01*
G01X5859180D02*
X5897780D01*
G01X5974240Y-9394770D02*
X5987110Y-9405350D01*
X6001590Y-9411700D01*
X6014450D01*
X6027320Y-9405350D01*
X6036980Y-9394770D01*
X6041800Y-9379950D01*
X6038590Y-9365140D01*
X6030540Y-9352430D01*
X6016060Y-9343970D01*
X5996760Y-9339730D01*
X5985500Y-9331270D01*
X5980670Y-9316450D01*
X5983890Y-9301630D01*
X5991930Y-9291050D01*
X6003190Y-9284700D01*
X6014450D01*
X6025720Y-9288930D01*
X6035370Y-9299520D01*
G01X6169730Y-9411700D02*
X6105390D01*
Y-9284700D01*
X6169730D01*
G01X6143990Y-9346080D02*
X6105390D01*
G01X6362860Y-9394770D02*
X6375730Y-9405350D01*
X6390210Y-9411700D01*
X6403070D01*
X6415940Y-9405350D01*
X6425600Y-9394770D01*
X6430420Y-9379950D01*
X6427210Y-9365140D01*
X6419160Y-9352430D01*
X6404680Y-9343970D01*
X6385380Y-9339730D01*
X6374120Y-9331270D01*
X6369290Y-9316450D01*
X6372510Y-9301630D01*
X6380550Y-9291050D01*
X6391810Y-9284700D01*
X6403070D01*
X6414340Y-9288930D01*
X6423990Y-9299520D01*
G01X6494010Y-9411700D02*
Y-9284700D01*
X6532610D01*
X6545480Y-9291050D01*
X6555140Y-9305870D01*
X6558350Y-9322800D01*
X6555140Y-9339730D01*
X6547090Y-9352430D01*
X6532610Y-9358790D01*
X6494010D01*
G01X6687890Y-9411700D02*
X6623550D01*
Y-9284700D01*
X6687890D01*
G01X6662150Y-9346080D02*
X6623550D01*
G01X6820650Y-9295280D02*
X6811000Y-9288930D01*
X6799740Y-9284700D01*
X6786870D01*
X6772390Y-9291050D01*
X6761130Y-9301630D01*
X6753090Y-9314330D01*
X6746650Y-9335500D01*
X6745040Y-9354550D01*
X6748260Y-9373600D01*
X6753090Y-9386300D01*
X6762740Y-9399000D01*
X6774000Y-9407470D01*
X6785260Y-9411700D01*
X6796520D01*
X6807780Y-9407470D01*
X6817430Y-9401120D01*
X6825480Y-9392650D01*
G01X6895500Y-9284700D02*
X6934100D01*
G01X6914800D02*
Y-9411700D01*
G01X6895500D02*
X6934100D01*
G01X7013770D02*
Y-9284700D01*
X7074910D01*
G01X7052380Y-9346080D02*
X7013770D01*
G01X7154580Y-9284700D02*
X7193180D01*
G01X7173880D02*
Y-9411700D01*
G01X7154580D02*
X7193180D01*
G01X7335590D02*
X7271250D01*
Y-9284700D01*
X7335590D01*
G01X7309850Y-9346080D02*
X7271250D01*
G01X7397570Y-9411700D02*
Y-9284700D01*
X7429740D01*
X7442610Y-9291050D01*
X7452260Y-9299520D01*
X7460310Y-9312210D01*
X7466740Y-9327040D01*
X7468350Y-9348200D01*
X7466740Y-9369370D01*
X7460310Y-9384190D01*
X7452260Y-9396890D01*
X7442610Y-9405350D01*
X7429740Y-9411700D01*
X7397570D01*
G01X3955700Y-9729200D02*
X13099700D01*
G01X4703940Y2975000D02*
X7620000D01*
G01X7299060Y-1602500D02*
Y-4142500D01*
G01X7220000Y2912500D02*
X7620000Y2975000D01*
X7220000Y3037500D01*
Y2912500D01*
G01X7765700Y-8967200D02*
Y-13539200D01*
G01Y-12650200D02*
X13099700D01*
G01X7765700Y-12015200D02*
X13099700D01*
G01X7765700Y-11253200D02*
X13099700D01*
G01X7765700Y-10491200D02*
X13099700D01*
G01X7870000Y0D02*
X8550000D01*
G01X7870000Y2540000D02*
X8550000D01*
G01X7620000Y2790000D02*
Y3225000D01*
G01X8863110Y-9390370D02*
X8879020Y-9403700D01*
X8896930Y-9411700D01*
X8912850D01*
X8928770Y-9403700D01*
X8940710Y-9390370D01*
X8946670Y-9371690D01*
X8942690Y-9353030D01*
X8932740Y-9337030D01*
X8914840Y-9326350D01*
X8890960Y-9321020D01*
X8877040Y-9310360D01*
X8871060Y-9291690D01*
X8875050Y-9273020D01*
X8884990Y-9259680D01*
X8898920Y-9251680D01*
X8912850D01*
X8926780Y-9257010D01*
X8938720Y-9270350D01*
G01X9041030Y-9251680D02*
X9088780D01*
G01X9064910D02*
Y-9411700D01*
G01X9041030D02*
X9088780D01*
G01X9236870Y-9331690D02*
X9276660D01*
Y-9379700D01*
X9264720Y-9395700D01*
X9250800Y-9406370D01*
X9230900Y-9411700D01*
X9211000Y-9406370D01*
X9197080Y-9395700D01*
X9185140Y-9379700D01*
X9177180Y-9361030D01*
X9173200Y-9339690D01*
Y-9321020D01*
X9177180Y-9305020D01*
X9185140Y-9286350D01*
X9197080Y-9270350D01*
X9209010Y-9259680D01*
X9224930Y-9251680D01*
X9238860D01*
X9254770Y-9257010D01*
X9266710Y-9267680D01*
G01X9339190Y-9411700D02*
Y-9251680D01*
X9430710Y-9411700D01*
Y-9251680D01*
G01X9495230Y-9411700D02*
X9544970Y-9251680D01*
X9594710Y-9411700D01*
G01X9576800Y-9355700D02*
X9513130D01*
G01X9704990Y-9251680D02*
Y-9411700D01*
G01X9659230Y-9251680D02*
X9750750D01*
G01X9821240D02*
Y-9366360D01*
X9829190Y-9390370D01*
X9845110Y-9406370D01*
X9865010Y-9411700D01*
X9884910Y-9406370D01*
X9900830Y-9390370D01*
X9908780Y-9366360D01*
Y-9251680D01*
G01X9985240Y-9411700D02*
Y-9251680D01*
X10034980D01*
X10050900Y-9259680D01*
X10060850Y-9270350D01*
X10064820Y-9291690D01*
X10060850Y-9313020D01*
X10048910Y-9326350D01*
X10034980Y-9334360D01*
X9985240D01*
G01X10034980D02*
X10064820Y-9411700D01*
G01X10224840D02*
X10145260D01*
Y-9251680D01*
X10224840D01*
G01X10193010Y-9329020D02*
X10145260D01*
G01X10303290Y-9390370D02*
X10319200Y-9403700D01*
X10337110Y-9411700D01*
X10353030D01*
X10368950Y-9403700D01*
X10380890Y-9390370D01*
X10386850Y-9371690D01*
X10382870Y-9353030D01*
X10372920Y-9337030D01*
X10355020Y-9326350D01*
X10331140Y-9321020D01*
X10317220Y-9310360D01*
X10311240Y-9291690D01*
X10315230Y-9273020D01*
X10325170Y-9259680D01*
X10339100Y-9251680D01*
X10353030D01*
X10366960Y-9257010D01*
X10378900Y-9270350D01*
G01X8300000Y827860D02*
Y0D01*
G01X8237500Y400000D02*
X8300000Y0D01*
X8362500Y400000D01*
X8237500D01*
G01X8300000Y1622140D02*
Y2540000D01*
G01X8362500Y2140000D02*
X8300000Y2540000D01*
X8237500Y2140000D01*
X8362500D01*
G01X11067700Y-11951700D02*
Y-12015200D01*
G01Y-11951700D02*
Y-8967200D01*
G01Y4431300D02*
Y3669300D01*
G01Y6717300D02*
Y4431300D01*
G01Y5193300D02*
X23767700D01*
G01X11067700Y5955300D02*
X23767700D01*
G01X11718620Y-9411700D02*
Y-9251680D01*
X11758410D01*
X11774330Y-9259680D01*
X11786270Y-9270350D01*
X11796220Y-9286350D01*
X11804170Y-9305020D01*
X11806160Y-9331690D01*
X11804170Y-9358360D01*
X11796220Y-9377030D01*
X11786270Y-9393030D01*
X11774330Y-9403700D01*
X11758410Y-9411700D01*
X11718620D01*
G01X11872670D02*
X11922410Y-9251680D01*
X11972150Y-9411700D01*
G01X11954240Y-9355700D02*
X11890570D01*
G01X12082430Y-9251680D02*
Y-9411700D01*
G01X12036670Y-9251680D02*
X12128190D01*
G01X12282240Y-9411700D02*
X12202660D01*
Y-9251680D01*
X12282240D01*
G01X12250410Y-9329020D02*
X12202660D01*
G01X11226450Y5447300D02*
Y5701300D01*
X11305820D01*
X11331220Y5688590D01*
X11347100Y5671670D01*
X11353450Y5637800D01*
X11347100Y5603930D01*
X11328050Y5582770D01*
X11305820Y5570060D01*
X11226450D01*
G01X11305820D02*
X11353450Y5447300D01*
G01X11607450D02*
X11480450D01*
Y5701300D01*
X11607450D01*
G01X11556650Y5578540D02*
X11480450D01*
G01X11718570Y5701300D02*
X11797950Y5447300D01*
X11877330Y5701300D01*
G01X12417160Y-1602500D02*
Y-4142500D01*
G01X12083700Y4431300D02*
Y3669300D01*
G01Y4431300D02*
Y5955300D01*
G01X13255270Y-13124340D02*
X13280680Y-13145500D01*
X13309250Y-13158200D01*
X13334650D01*
X13360050Y-13145500D01*
X13379100Y-13124340D01*
X13388630Y-13094700D01*
X13382280Y-13065070D01*
X13366400Y-13039670D01*
X13337820Y-13022730D01*
X13299730Y-13014270D01*
X13277500Y-12997340D01*
X13267970Y-12967700D01*
X13274330Y-12938070D01*
X13290200Y-12916910D01*
X13312420Y-12904200D01*
X13334650D01*
X13356880Y-12912660D01*
X13375930Y-12933830D01*
G01X13645800Y-12925370D02*
X13626750Y-12912660D01*
X13604530Y-12904200D01*
X13579130D01*
X13550550Y-12916910D01*
X13528330Y-12938070D01*
X13512450Y-12963470D01*
X13499750Y-13005800D01*
X13496570Y-13043900D01*
X13502930Y-13082000D01*
X13512450Y-13107400D01*
X13531500Y-13132810D01*
X13553730Y-13149740D01*
X13575950Y-13158200D01*
X13598170D01*
X13620400Y-13149740D01*
X13639450Y-13137040D01*
X13655330Y-13120110D01*
G01X13750570Y-13158200D02*
X13829950Y-12904200D01*
X13909330Y-13158200D01*
G01X13880750Y-13069300D02*
X13779150D01*
G01X14020450Y-12904200D02*
Y-13158200D01*
X14147450D01*
G01X14401450D02*
X14274450D01*
Y-12904200D01*
X14401450D01*
G01X14350650Y-13026960D02*
X14274450D01*
G01X13099700Y-8967200D02*
Y-13539200D01*
G01X19449700Y-12777200D02*
X13099700D01*
G01X13255270Y-12108340D02*
X13280680Y-12129500D01*
X13309250Y-12142200D01*
X13334650D01*
X13360050Y-12129500D01*
X13379100Y-12108340D01*
X13388630Y-12078700D01*
X13382280Y-12049070D01*
X13366400Y-12023670D01*
X13337820Y-12006730D01*
X13299730Y-11998270D01*
X13277500Y-11981340D01*
X13267970Y-11951700D01*
X13274330Y-11922070D01*
X13290200Y-11900910D01*
X13312420Y-11888200D01*
X13334650D01*
X13356880Y-11896660D01*
X13375930Y-11917830D01*
G01X13537850Y-11888200D02*
X13614040D01*
G01X13575950D02*
Y-12142200D01*
G01X13537850D02*
X13614040D01*
G01X13769620Y-11888200D02*
X13890280D01*
X13769620Y-12142200D01*
X13890280D01*
G01X14147450D02*
X14020450D01*
Y-11888200D01*
X14147450D01*
G01X14096650Y-12010960D02*
X14020450D01*
G01X23767700Y-11761200D02*
X13099700D01*
G01X23767700Y-10237200D02*
X13099700D01*
G01X13887100Y5447300D02*
Y5701300D01*
X13950600D01*
X13976000Y5688590D01*
X13995050Y5671670D01*
X14010930Y5646270D01*
X14023630Y5616630D01*
X14026800Y5574300D01*
X14023630Y5531960D01*
X14010930Y5502330D01*
X13995050Y5476930D01*
X13976000Y5460000D01*
X13950600Y5447300D01*
X13887100D01*
G01X14274450D02*
X14147450D01*
Y5701300D01*
X14274450D01*
G01X14223650Y5578540D02*
X14147450D01*
G01X14398270Y5481160D02*
X14423680Y5460000D01*
X14452250Y5447300D01*
X14477650D01*
X14503050Y5460000D01*
X14522100Y5481160D01*
X14531630Y5510800D01*
X14525280Y5540430D01*
X14509400Y5565830D01*
X14480820Y5582770D01*
X14442730Y5591230D01*
X14420500Y5608160D01*
X14410970Y5637800D01*
X14417330Y5667430D01*
X14433200Y5688590D01*
X14455420Y5701300D01*
X14477650D01*
X14499880Y5692840D01*
X14518930Y5671670D01*
G01X14788800Y5680130D02*
X14769750Y5692840D01*
X14747530Y5701300D01*
X14722130D01*
X14693550Y5688590D01*
X14671330Y5667430D01*
X14655450Y5642030D01*
X14642750Y5599700D01*
X14639570Y5561600D01*
X14645930Y5523500D01*
X14655450Y5498100D01*
X14674500Y5472690D01*
X14696730Y5455760D01*
X14718950Y5447300D01*
X14741170D01*
X14763400Y5455760D01*
X14782450Y5468460D01*
X14798330Y5485390D01*
G01X14909450Y5447300D02*
Y5701300D01*
X14988820D01*
X15014220Y5688590D01*
X15030100Y5671670D01*
X15036450Y5637800D01*
X15030100Y5603930D01*
X15011050Y5582770D01*
X14988820Y5570060D01*
X14909450D01*
G01X14988820D02*
X15036450Y5447300D01*
G01X15188850Y5701300D02*
X15265040D01*
G01X15226950D02*
Y5447300D01*
G01X15188850D02*
X15265040D01*
G01X15417450D02*
Y5701300D01*
X15493650D01*
X15519050Y5688590D01*
X15538100Y5658970D01*
X15544450Y5625100D01*
X15538100Y5591230D01*
X15522220Y5565830D01*
X15493650Y5553130D01*
X15417450D01*
G01X15734950Y5701300D02*
Y5447300D01*
G01X15661930Y5701300D02*
X15807970D01*
G01X15950850D02*
X16027040D01*
G01X15988950D02*
Y5447300D01*
G01X15950850D02*
X16027040D01*
G01X16242950D02*
X16217550Y5451530D01*
X16195330Y5468460D01*
X16176270Y5493860D01*
X16163570Y5523500D01*
X16157220Y5557370D01*
Y5591230D01*
X16163570Y5625100D01*
X16176270Y5654740D01*
X16195330Y5680130D01*
X16217550Y5697070D01*
X16242950Y5701300D01*
X16268350Y5697070D01*
X16290570Y5680130D01*
X16309630Y5654740D01*
X16322330Y5625100D01*
X16328680Y5591230D01*
Y5557370D01*
X16322330Y5523500D01*
X16309630Y5493860D01*
X16290570Y5468460D01*
X16268350Y5451530D01*
X16242950Y5447300D01*
G01X16423930D02*
Y5701300D01*
X16569970Y5447300D01*
Y5701300D01*
G01X14369700Y-12777200D02*
Y-11761200D01*
G01X14658620Y-12142200D02*
Y-11888200D01*
X14779280D01*
G01X14734820Y-12010960D02*
X14658620D01*
G01X14906270Y-12108340D02*
X14931680Y-12129500D01*
X14960250Y-12142200D01*
X14985650D01*
X15011050Y-12129500D01*
X15030100Y-12108340D01*
X15039630Y-12078700D01*
X15033280Y-12049070D01*
X15017400Y-12023670D01*
X14988820Y-12006730D01*
X14950730Y-11998270D01*
X14928500Y-11981340D01*
X14918970Y-11951700D01*
X14925330Y-11922070D01*
X14941200Y-11900910D01*
X14963420Y-11888200D01*
X14985650D01*
X15007880Y-11896660D01*
X15026930Y-11917830D01*
G01X15296800Y-11909370D02*
X15277750Y-11896660D01*
X15255530Y-11888200D01*
X15230130D01*
X15201550Y-11900910D01*
X15179330Y-11922070D01*
X15163450Y-11947470D01*
X15150750Y-11989800D01*
X15147570Y-12027900D01*
X15153930Y-12066000D01*
X15163450Y-12091400D01*
X15182500Y-12116810D01*
X15204730Y-12133740D01*
X15226950Y-12142200D01*
X15249170D01*
X15271400Y-12133740D01*
X15290450Y-12121040D01*
X15306330Y-12104110D01*
G01X15398400Y-12142200D02*
Y-11888200D01*
X15480950Y-12099870D01*
X15563500Y-11888200D01*
Y-12142200D01*
G01X15915930D02*
Y-11888200D01*
X16061970Y-12142200D01*
Y-11888200D01*
G01X16242950Y-12142200D02*
X16217550Y-12137970D01*
X16195330Y-12121040D01*
X16176270Y-12095640D01*
X16163570Y-12066000D01*
X16157220Y-12032130D01*
Y-11998270D01*
X16163570Y-11964400D01*
X16176270Y-11934760D01*
X16195330Y-11909370D01*
X16217550Y-11892430D01*
X16242950Y-11888200D01*
X16268350Y-11892430D01*
X16290570Y-11909370D01*
X16309630Y-11934760D01*
X16322330Y-11964400D01*
X16328680Y-11998270D01*
Y-12032130D01*
X16322330Y-12066000D01*
X16309630Y-12095640D01*
X16290570Y-12121040D01*
X16268350Y-12137970D01*
X16242950Y-12142200D01*
G01X15042800Y-9496370D02*
X15023750Y-9483660D01*
X15001530Y-9475200D01*
X14976130D01*
X14947550Y-9487910D01*
X14925330Y-9509070D01*
X14909450Y-9534470D01*
X14896750Y-9576800D01*
X14893570Y-9614900D01*
X14899930Y-9653000D01*
X14909450Y-9678400D01*
X14928500Y-9703810D01*
X14950730Y-9720740D01*
X14972950Y-9729200D01*
X14995170D01*
X15017400Y-9720740D01*
X15036450Y-9708040D01*
X15052330Y-9691110D01*
G01X15226950Y-9729200D02*
X15201550Y-9724970D01*
X15179330Y-9708040D01*
X15160270Y-9682640D01*
X15147570Y-9653000D01*
X15141220Y-9619130D01*
Y-9585270D01*
X15147570Y-9551400D01*
X15160270Y-9521760D01*
X15179330Y-9496370D01*
X15201550Y-9479430D01*
X15226950Y-9475200D01*
X15252350Y-9479430D01*
X15274570Y-9496370D01*
X15293630Y-9521760D01*
X15306330Y-9551400D01*
X15312680Y-9585270D01*
Y-9619130D01*
X15306330Y-9653000D01*
X15293630Y-9682640D01*
X15274570Y-9708040D01*
X15252350Y-9724970D01*
X15226950Y-9729200D01*
G01X15398400D02*
Y-9475200D01*
X15480950Y-9686870D01*
X15563500Y-9475200D01*
Y-9729200D01*
G01X15671450D02*
Y-9475200D01*
X15747650D01*
X15773050Y-9487910D01*
X15792100Y-9517530D01*
X15798450Y-9551400D01*
X15792100Y-9585270D01*
X15776220Y-9610670D01*
X15747650Y-9623370D01*
X15671450D01*
G01X15909570Y-9729200D02*
X15988950Y-9475200D01*
X16068330Y-9729200D01*
G01X16039750Y-9640300D02*
X15938150D01*
G01X16169930Y-9729200D02*
Y-9475200D01*
X16315970Y-9729200D01*
Y-9475200D01*
G01X16496950Y-9729200D02*
Y-9614900D01*
X16433450Y-9475200D01*
G01X16560450D02*
X16496950Y-9614900D01*
G01X16931930Y-9729200D02*
Y-9475200D01*
X17077970Y-9729200D01*
Y-9475200D01*
G01X17179570Y-9729200D02*
X17258950Y-9475200D01*
X17338330Y-9729200D01*
G01X17309750Y-9640300D02*
X17208150D01*
G01X17430400Y-9729200D02*
Y-9475200D01*
X17512950Y-9686870D01*
X17595500Y-9475200D01*
Y-9729200D01*
G01X17830450D02*
X17703450D01*
Y-9475200D01*
X17830450D01*
G01X17779650Y-9597960D02*
X17703450D01*
G01X18195570Y-9729200D02*
X18274950Y-9475200D01*
X18354330Y-9729200D01*
G01X18325750Y-9640300D02*
X18224150D01*
G01X18455930Y-9729200D02*
Y-9475200D01*
X18601970Y-9729200D01*
Y-9475200D01*
G01X18713100Y-9729200D02*
Y-9475200D01*
X18776600D01*
X18802000Y-9487910D01*
X18821050Y-9504830D01*
X18836930Y-9530230D01*
X18849630Y-9559870D01*
X18852800Y-9602200D01*
X18849630Y-9644540D01*
X18836930Y-9674170D01*
X18821050Y-9699570D01*
X18802000Y-9716500D01*
X18776600Y-9729200D01*
X18713100D01*
G01X19211570D02*
X19290950Y-9475200D01*
X19370330Y-9729200D01*
G01X19341750Y-9640300D02*
X19240150D01*
G01X19475100Y-9729200D02*
Y-9475200D01*
X19538600D01*
X19564000Y-9487910D01*
X19583050Y-9504830D01*
X19598930Y-9530230D01*
X19611630Y-9559870D01*
X19614800Y-9602200D01*
X19611630Y-9644540D01*
X19598930Y-9674170D01*
X19583050Y-9699570D01*
X19564000Y-9716500D01*
X19538600Y-9729200D01*
X19475100D01*
G01X19729100D02*
Y-9475200D01*
X19792600D01*
X19818000Y-9487910D01*
X19837050Y-9504830D01*
X19852930Y-9530230D01*
X19865630Y-9559870D01*
X19868800Y-9602200D01*
X19865630Y-9644540D01*
X19852930Y-9674170D01*
X19837050Y-9699570D01*
X19818000Y-9716500D01*
X19792600Y-9729200D01*
X19729100D01*
G01X19989450D02*
Y-9475200D01*
X20068820D01*
X20094220Y-9487910D01*
X20110100Y-9504830D01*
X20116450Y-9538700D01*
X20110100Y-9572570D01*
X20091050Y-9593730D01*
X20068820Y-9606440D01*
X19989450D01*
G01X20068820D02*
X20116450Y-9729200D01*
G01X20370450D02*
X20243450D01*
Y-9475200D01*
X20370450D01*
G01X20319650Y-9597960D02*
X20243450D01*
G01X20494270Y-9695340D02*
X20519680Y-9716500D01*
X20548250Y-9729200D01*
X20573650D01*
X20599050Y-9716500D01*
X20618100Y-9695340D01*
X20627630Y-9665700D01*
X20621280Y-9636070D01*
X20605400Y-9610670D01*
X20576820Y-9593730D01*
X20538730Y-9585270D01*
X20516500Y-9568340D01*
X20506970Y-9538700D01*
X20513330Y-9509070D01*
X20529200Y-9487910D01*
X20551420Y-9475200D01*
X20573650D01*
X20595880Y-9483660D01*
X20614930Y-9504830D01*
G01X20748270Y-9695340D02*
X20773680Y-9716500D01*
X20802250Y-9729200D01*
X20827650D01*
X20853050Y-9716500D01*
X20872100Y-9695340D01*
X20881630Y-9665700D01*
X20875280Y-9636070D01*
X20859400Y-9610670D01*
X20830820Y-9593730D01*
X20792730Y-9585270D01*
X20770500Y-9568340D01*
X20760970Y-9538700D01*
X20767330Y-9509070D01*
X20783200Y-9487910D01*
X20805420Y-9475200D01*
X20827650D01*
X20849880Y-9483660D01*
X20868930Y-9504830D01*
G01X15385700Y-12777200D02*
Y-13539200D01*
G01X15645500Y-1602500D02*
Y-4142500D01*
G01X16560450Y6209300D02*
Y6463300D01*
X16639820D01*
X16665220Y6450590D01*
X16681100Y6433670D01*
X16687450Y6399800D01*
X16681100Y6365930D01*
X16662050Y6344770D01*
X16639820Y6332060D01*
X16560450D01*
G01X16639820D02*
X16687450Y6209300D01*
G01X16941450D02*
X16814450D01*
Y6463300D01*
X16941450D01*
G01X16890650Y6340540D02*
X16814450D01*
G01X17052570Y6463300D02*
X17131950Y6209300D01*
X17211330Y6463300D01*
G01X17347850D02*
X17424040D01*
G01X17385950D02*
Y6209300D01*
G01X17347850D02*
X17424040D01*
G01X17573270Y6243160D02*
X17598680Y6222000D01*
X17627250Y6209300D01*
X17652650D01*
X17678050Y6222000D01*
X17697100Y6243160D01*
X17706630Y6272800D01*
X17700280Y6302430D01*
X17684400Y6327830D01*
X17655820Y6344770D01*
X17617730Y6353230D01*
X17595500Y6370160D01*
X17585970Y6399800D01*
X17592330Y6429430D01*
X17608200Y6450590D01*
X17630420Y6463300D01*
X17652650D01*
X17674880Y6454840D01*
X17693930Y6433670D01*
G01X17855850Y6463300D02*
X17932040D01*
G01X17893950D02*
Y6209300D01*
G01X17855850D02*
X17932040D01*
G01X18147950D02*
X18122550Y6213530D01*
X18100330Y6230460D01*
X18081270Y6255860D01*
X18068570Y6285500D01*
X18062220Y6319370D01*
Y6353230D01*
X18068570Y6387100D01*
X18081270Y6416740D01*
X18100330Y6442130D01*
X18122550Y6459070D01*
X18147950Y6463300D01*
X18173350Y6459070D01*
X18195570Y6442130D01*
X18214630Y6416740D01*
X18227330Y6387100D01*
X18233680Y6353230D01*
Y6319370D01*
X18227330Y6285500D01*
X18214630Y6255860D01*
X18195570Y6230460D01*
X18173350Y6213530D01*
X18147950Y6209300D01*
G01X18328930D02*
Y6463300D01*
X18474970Y6209300D01*
Y6463300D01*
G01X18589270Y6243160D02*
X18614680Y6222000D01*
X18643250Y6209300D01*
X18668650D01*
X18694050Y6222000D01*
X18713100Y6243160D01*
X18722630Y6272800D01*
X18716280Y6302430D01*
X18700400Y6327830D01*
X18671820Y6344770D01*
X18633730Y6353230D01*
X18611500Y6370160D01*
X18601970Y6399800D01*
X18608330Y6429430D01*
X18624200Y6450590D01*
X18646420Y6463300D01*
X18668650D01*
X18690880Y6454840D01*
X18709930Y6433670D01*
G01X17417700Y-12777200D02*
Y-11761200D01*
G01X17697100Y-12142200D02*
Y-11888200D01*
X17760600D01*
X17786000Y-11900910D01*
X17805050Y-11917830D01*
X17820930Y-11943230D01*
X17833630Y-11972870D01*
X17836800Y-12015200D01*
X17833630Y-12057540D01*
X17820930Y-12087170D01*
X17805050Y-12112570D01*
X17786000Y-12129500D01*
X17760600Y-12142200D01*
X17697100D01*
G01X17925700Y-11888200D02*
X17970150Y-12142200D01*
X18020950Y-11888200D01*
X18071750Y-12142200D01*
X18116200Y-11888200D01*
G01X18294000Y-12015200D02*
X18357500D01*
Y-12091400D01*
X18338450Y-12116810D01*
X18316220Y-12133740D01*
X18284480Y-12142200D01*
X18252730Y-12133740D01*
X18230500Y-12116810D01*
X18211450Y-12091400D01*
X18198750Y-12061770D01*
X18192400Y-12027900D01*
Y-11998270D01*
X18198750Y-11972870D01*
X18211450Y-11943230D01*
X18230500Y-11917830D01*
X18249550Y-11900910D01*
X18274950Y-11888200D01*
X18297170D01*
X18322570Y-11896660D01*
X18341630Y-11913600D01*
G01X18709930Y-12142200D02*
Y-11888200D01*
X18855970Y-12142200D01*
Y-11888200D01*
G01X19036950Y-12142200D02*
X19011550Y-12137970D01*
X18989330Y-12121040D01*
X18970270Y-12095640D01*
X18957570Y-12066000D01*
X18951220Y-12032130D01*
Y-11998270D01*
X18957570Y-11964400D01*
X18970270Y-11934760D01*
X18989330Y-11909370D01*
X19011550Y-11892430D01*
X19036950Y-11888200D01*
X19062350Y-11892430D01*
X19084570Y-11909370D01*
X19103630Y-11934760D01*
X19116330Y-11964400D01*
X19122680Y-11998270D01*
Y-12032130D01*
X19116330Y-12066000D01*
X19103630Y-12095640D01*
X19084570Y-12121040D01*
X19062350Y-12137970D01*
X19036950Y-12142200D01*
G01X19449700Y-13539200D02*
Y-12777200D01*
X23767700D01*
G01X18898280Y-2719700D02*
Y1181740D01*
X20422280D01*
Y-2719700D01*
X18898280D01*
G01X18941700Y4177300D02*
Y5193300D01*
G01Y4431300D02*
Y3669300D01*
G01Y5193300D02*
Y5955300D01*
G01X19732270Y-13124340D02*
X19757680Y-13145500D01*
X19786250Y-13158200D01*
X19811650D01*
X19837050Y-13145500D01*
X19856100Y-13124340D01*
X19865630Y-13094700D01*
X19859280Y-13065070D01*
X19843400Y-13039670D01*
X19814820Y-13022730D01*
X19776730Y-13014270D01*
X19754500Y-12997340D01*
X19744970Y-12967700D01*
X19751330Y-12938070D01*
X19767200Y-12916910D01*
X19789420Y-12904200D01*
X19811650D01*
X19833880Y-12912660D01*
X19852930Y-12933830D01*
G01X19986270Y-13158200D02*
Y-12904200D01*
G01X20119630D02*
Y-13158200D01*
G01Y-13031200D02*
X19986270D01*
G01X20370450Y-13158200D02*
X20243450D01*
Y-12904200D01*
X20370450D01*
G01X20319650Y-13026960D02*
X20243450D01*
G01X20624450Y-13158200D02*
X20497450D01*
Y-12904200D01*
X20624450D01*
G01X20573650Y-13026960D02*
X20497450D01*
G01X20814950Y-12904200D02*
Y-13158200D01*
G01X20741930Y-12904200D02*
X20887970D01*
G01X19602100Y5447300D02*
Y5701300D01*
X19665600D01*
X19691000Y5688590D01*
X19710050Y5671670D01*
X19725930Y5646270D01*
X19738630Y5616630D01*
X19741800Y5574300D01*
X19738630Y5531960D01*
X19725930Y5502330D01*
X19710050Y5476930D01*
X19691000Y5460000D01*
X19665600Y5447300D01*
X19602100D01*
G01X19846570D02*
X19925950Y5701300D01*
X20005330Y5447300D01*
G01X19976750Y5536200D02*
X19875150D01*
G01X20179950Y5701300D02*
Y5447300D01*
G01X20106930Y5701300D02*
X20252970D01*
G01X20497450Y5447300D02*
X20370450D01*
Y5701300D01*
X20497450D01*
G01X20446650Y5578540D02*
X20370450D01*
G01X20672280Y-2719700D02*
X22100000D01*
G01X20672280Y1181740D02*
X22100000D01*
G01X21787500Y-2319700D02*
X21850000Y-2719700D01*
X21912500Y-2319700D01*
X21787500D01*
G01X21912500Y781740D02*
X21850000Y1181740D01*
X21787500Y781740D01*
X21912500D01*
G01X21227700Y4431300D02*
Y3669300D01*
G01Y4431300D02*
Y5193300D01*
G01X21497570Y5447300D02*
X21576950Y5701300D01*
X21656330Y5447300D01*
G01X21627750Y5536200D02*
X21526150D01*
G01X21767450Y5447300D02*
Y5701300D01*
X21843650D01*
X21869050Y5688590D01*
X21888100Y5658970D01*
X21894450Y5625100D01*
X21888100Y5591230D01*
X21872220Y5565830D01*
X21843650Y5553130D01*
X21767450D01*
G01X22021450Y5447300D02*
Y5701300D01*
X22097650D01*
X22123050Y5688590D01*
X22142100Y5658970D01*
X22148450Y5625100D01*
X22142100Y5591230D01*
X22126220Y5565830D01*
X22097650Y5553130D01*
X22021450D01*
G01X22275450Y5447300D02*
Y5701300D01*
X22354820D01*
X22380220Y5688590D01*
X22396100Y5671670D01*
X22402450Y5637800D01*
X22396100Y5603930D01*
X22377050Y5582770D01*
X22354820Y5570060D01*
X22275450D01*
G01X22354820D02*
X22402450Y5447300D01*
G01X22592950D02*
X22567550Y5451530D01*
X22545330Y5468460D01*
X22526270Y5493860D01*
X22513570Y5523500D01*
X22507220Y5557370D01*
Y5591230D01*
X22513570Y5625100D01*
X22526270Y5654740D01*
X22545330Y5680130D01*
X22567550Y5697070D01*
X22592950Y5701300D01*
X22618350Y5697070D01*
X22640570Y5680130D01*
X22659630Y5654740D01*
X22672330Y5625100D01*
X22678680Y5591230D01*
Y5557370D01*
X22672330Y5523500D01*
X22659630Y5493860D01*
X22640570Y5468460D01*
X22618350Y5451530D01*
X22592950Y5447300D01*
G01X22767570Y5701300D02*
X22846950Y5447300D01*
X22926330Y5701300D01*
G01X23164450Y5447300D02*
X23037450D01*
Y5701300D01*
X23164450D01*
G01X23113650Y5578540D02*
X23037450D01*
G01X23285100Y5447300D02*
Y5701300D01*
X23348600D01*
X23374000Y5688590D01*
X23393050Y5671670D01*
X23408930Y5646270D01*
X23421630Y5616630D01*
X23424800Y5574300D01*
X23421630Y5531960D01*
X23408930Y5502330D01*
X23393050Y5476930D01*
X23374000Y5460000D01*
X23348600Y5447300D01*
X23285100D01*
G01X21227700Y5193300D02*
Y5955300D01*
G01X21850000Y-2047140D02*
Y-2719700D01*
G01Y-1252860D02*
Y1181740D01*
G01X23767700Y6717300D02*
Y3669300D01*
G54D14*
G01X177020Y-2078750D02*
Y-1761250D01*
X326640D01*
G01X271510Y-1914700D02*
X177020D01*
G01X519550Y-1761250D02*
X614030D01*
G01X566790D02*
Y-2078750D01*
G01X519550D02*
X614030D01*
G01X905370Y-1920000D02*
X984120D01*
Y-2015250D01*
X960490Y-2047010D01*
X932930Y-2068170D01*
X893560Y-2078750D01*
X854190Y-2068170D01*
X826630Y-2047010D01*
X803010Y-2015250D01*
X787260Y-1978210D01*
X779380Y-1935880D01*
Y-1898830D01*
X787260Y-1867090D01*
X803010Y-1830040D01*
X826630Y-1798290D01*
X850250Y-1777130D01*
X881750Y-1761250D01*
X909310D01*
X940800Y-1771830D01*
X964430Y-1793000D01*
G01X1110100Y-1761250D02*
Y-1988790D01*
X1125840Y-2036430D01*
X1157340Y-2068170D01*
X1196710Y-2078750D01*
X1236080Y-2068170D01*
X1267580Y-2036430D01*
X1283320Y-1988790D01*
Y-1761250D01*
G01X1432930Y-2078750D02*
Y-1761250D01*
X1531350D01*
X1562850Y-1777130D01*
X1582540Y-1798290D01*
X1590410Y-1840630D01*
X1582540Y-1882960D01*
X1558910Y-1909410D01*
X1531350Y-1925300D01*
X1432930D01*
G01X1531350D02*
X1590410Y-2078750D01*
G01X1905370D02*
X1747890D01*
Y-1761250D01*
X1905370D01*
G01X1842380Y-1914700D02*
X1747890D01*
G01X2775440Y-2078750D02*
Y-1761250D01*
X2925060D01*
G01X2869930Y-1914700D02*
X2775440D01*
G01X3117970Y-1761250D02*
X3212450D01*
G01X3165210D02*
Y-2078750D01*
G01X3117970D02*
X3212450D01*
G01X3389620D02*
Y-1761250D01*
X3570720Y-2078750D01*
Y-1761250D01*
G01X3747890D02*
X3842370D01*
G01X3795130D02*
Y-2078750D01*
G01X3747890D02*
X3842370D01*
G01X4027410Y-2036430D02*
X4058910Y-2062880D01*
X4094340Y-2078750D01*
X4125840D01*
X4157330Y-2062880D01*
X4180960Y-2036430D01*
X4192770Y-1999370D01*
X4184900Y-1962340D01*
X4165210Y-1930590D01*
X4129770Y-1909410D01*
X4082530Y-1898830D01*
X4054970Y-1877670D01*
X4043160Y-1840630D01*
X4051040Y-1803580D01*
X4070720Y-1777130D01*
X4098280Y-1761250D01*
X4125840D01*
X4153400Y-1771830D01*
X4177020Y-1798290D01*
G01X4342370Y-2078750D02*
Y-1761250D01*
G01X4507730D02*
Y-2078750D01*
G01Y-1920000D02*
X4342370D01*
G01X4818750Y-2078750D02*
X4661270D01*
Y-1761250D01*
X4818750D01*
G01X4755760Y-1914700D02*
X4661270D01*
G01X4968360Y-2078750D02*
Y-1761250D01*
X5047090D01*
X5078590Y-1777130D01*
X5102210Y-1798290D01*
X5121900Y-1830040D01*
X5137650Y-1867090D01*
X5141580Y-1920000D01*
X5137650Y-1972920D01*
X5121900Y-2009960D01*
X5102210Y-2041720D01*
X5078590Y-2062880D01*
X5047090Y-2078750D01*
X4968360D01*
G01X5251820Y-2184580D02*
X5488040D01*
G01X5602210Y-2036430D02*
X5633710Y-2062880D01*
X5669140Y-2078750D01*
X5700640D01*
X5732130Y-2062880D01*
X5755760Y-2036430D01*
X5767570Y-1999370D01*
X5759700Y-1962340D01*
X5740010Y-1930590D01*
X5704570Y-1909410D01*
X5657330Y-1898830D01*
X5629770Y-1877670D01*
X5617960Y-1840630D01*
X5625840Y-1803580D01*
X5645520Y-1777130D01*
X5673080Y-1761250D01*
X5700640D01*
X5728200Y-1771830D01*
X5751820Y-1798290D01*
G01X5952610Y-1761250D02*
X6047090D01*
G01X5999850D02*
Y-2078750D01*
G01X5952610D02*
X6047090D01*
G01X6240000Y-1761250D02*
X6389620D01*
X6240000Y-2078750D01*
X6389620D01*
G01X6708510D02*
X6551030D01*
Y-1761250D01*
X6708510D01*
G01X6645520Y-1914700D02*
X6551030D01*
G01X3394680Y2816250D02*
X3402560Y2885040D01*
X3414370Y2943240D01*
X3430120Y2996170D01*
X3449800Y3054370D01*
X3481300Y3133750D01*
X3323820D01*
G01X3642710Y2948530D02*
X3670280Y2985590D01*
X3693900Y3006750D01*
X3725400Y3017330D01*
X3752960Y3006750D01*
X3772640Y2985590D01*
X3788390Y2953830D01*
X3792330Y2916790D01*
X3788390Y2885040D01*
X3772640Y2853280D01*
X3749010Y2826830D01*
X3721460Y2816250D01*
X3689960Y2826830D01*
X3662400Y2858570D01*
X3646650Y2906210D01*
X3642710Y2959120D01*
X3650590Y3027910D01*
X3662400Y3064960D01*
X3682080Y3102000D01*
X3709640Y3128460D01*
X3737200Y3133750D01*
X3764760Y3123170D01*
X3784450Y3096710D01*
G01X4032480Y2805670D02*
X4024600Y2810960D01*
Y2821540D01*
X4032480Y2826830D01*
X4040360Y2821540D01*
Y2810960D01*
X4032480Y2805670D01*
G01X4272630Y3080830D02*
X4296260Y3112580D01*
X4323820Y3128460D01*
X4355320Y3133750D01*
X4394680Y3123170D01*
X4422250Y3096710D01*
X4430120Y3064960D01*
X4426180Y3033200D01*
X4410430Y3006750D01*
X4331690Y2953830D01*
X4296260Y2916790D01*
X4272630Y2863860D01*
X4264760Y2816250D01*
X4430120D01*
G01X3952610Y-3983750D02*
Y-3666250D01*
X3905370Y-3729750D01*
G01Y-3983750D02*
X3999850D01*
G01X4267570Y-3994330D02*
X4259690Y-3989040D01*
Y-3978460D01*
X4267570Y-3973170D01*
X4275450Y-3978460D01*
Y-3989040D01*
X4267570Y-3994330D01*
G01X4582530Y-3666250D02*
X4551030Y-3676830D01*
X4527410Y-3703290D01*
X4511660Y-3735040D01*
X4499850Y-3777380D01*
X4495920Y-3825000D01*
X4499850Y-3872630D01*
X4511660Y-3914960D01*
X4527410Y-3946720D01*
X4551030Y-3973170D01*
X4582530Y-3983750D01*
X4614020Y-3973170D01*
X4637650Y-3946720D01*
X4653400Y-3914960D01*
X4665210Y-3872630D01*
X4669140Y-3825000D01*
X4665210Y-3777380D01*
X4653400Y-3735040D01*
X4637650Y-3703290D01*
X4614020Y-3676830D01*
X4582530Y-3666250D01*
G01X4822680Y-3851470D02*
X4850250Y-3814410D01*
X4873870Y-3793250D01*
X4905370Y-3782670D01*
X4932930Y-3793250D01*
X4952610Y-3814410D01*
X4968360Y-3846170D01*
X4972300Y-3883210D01*
X4968360Y-3914960D01*
X4952610Y-3946720D01*
X4928980Y-3973170D01*
X4901430Y-3983750D01*
X4869930Y-3973170D01*
X4842370Y-3941430D01*
X4826620Y-3893790D01*
X4822680Y-3840880D01*
X4830560Y-3772090D01*
X4842370Y-3735040D01*
X4862050Y-3698000D01*
X4889610Y-3671540D01*
X4917170Y-3666250D01*
X4944730Y-3676830D01*
X4964420Y-3703290D01*
G01X5137640Y-3851470D02*
X5165210Y-3814410D01*
X5188830Y-3793250D01*
X5220330Y-3782670D01*
X5247890Y-3793250D01*
X5267570Y-3814410D01*
X5283320Y-3846170D01*
X5287260Y-3883210D01*
X5283320Y-3914960D01*
X5267570Y-3946720D01*
X5243940Y-3973170D01*
X5216390Y-3983750D01*
X5184890Y-3973170D01*
X5157330Y-3941430D01*
X5141580Y-3893790D01*
X5137640Y-3840880D01*
X5145520Y-3772090D01*
X5157330Y-3735040D01*
X5177010Y-3698000D01*
X5204570Y-3671540D01*
X5232130Y-3666250D01*
X5259690Y-3676830D01*
X5279380Y-3703290D01*
G01X5527410Y-3983750D02*
X5554970Y-3978460D01*
X5586460Y-3962590D01*
X5606150Y-3936140D01*
X5614020Y-3899080D01*
X5606150Y-3862050D01*
X5582530Y-3830300D01*
X5547090Y-3814410D01*
X5507730D01*
X5484100Y-3803830D01*
X5464410Y-3777380D01*
X5456540Y-3740340D01*
X5468360Y-3703290D01*
X5495910Y-3676830D01*
X5527410Y-3666250D01*
X5558900Y-3676830D01*
X5586460Y-3703290D01*
X5598280Y-3740340D01*
X5590400Y-3777380D01*
X5570720Y-3803830D01*
X5547090Y-3814410D01*
X5507730D01*
X5472290Y-3830300D01*
X5448670Y-3862050D01*
X5440800Y-3899080D01*
X5448670Y-3936140D01*
X5468360Y-3962590D01*
X5499850Y-3978460D01*
X5527410Y-3983750D01*
G01X3952610Y-2396250D02*
X3921110Y-2406830D01*
X3897490Y-2433290D01*
X3881740Y-2465040D01*
X3869930Y-2507380D01*
X3866000Y-2555000D01*
X3869930Y-2602630D01*
X3881740Y-2644960D01*
X3897490Y-2676720D01*
X3921110Y-2703170D01*
X3952610Y-2713750D01*
X3984100Y-2703170D01*
X4007730Y-2676720D01*
X4023480Y-2644960D01*
X4035290Y-2602630D01*
X4039220Y-2555000D01*
X4035290Y-2507380D01*
X4023480Y-2465040D01*
X4007730Y-2433290D01*
X3984100Y-2406830D01*
X3952610Y-2396250D01*
G01X4267570Y-2724330D02*
X4259690Y-2719040D01*
Y-2708460D01*
X4267570Y-2703170D01*
X4275450Y-2708460D01*
Y-2719040D01*
X4267570Y-2724330D01*
G01X4495920Y-2650250D02*
X4519530Y-2687300D01*
X4551030Y-2708460D01*
X4586470Y-2713750D01*
X4617970Y-2708460D01*
X4649460Y-2682010D01*
X4669140Y-2650250D01*
X4673080Y-2618500D01*
X4665210Y-2581470D01*
X4637650Y-2555000D01*
X4610090Y-2544410D01*
X4574650D01*
G01X4610090D02*
X4633710Y-2528540D01*
X4653400Y-2502090D01*
X4661270Y-2470340D01*
X4653400Y-2438580D01*
X4633710Y-2412130D01*
X4598280Y-2396250D01*
X4562850Y-2401540D01*
X4527410Y-2422710D01*
G01X4810880Y-2650250D02*
X4834490Y-2687300D01*
X4865990Y-2708460D01*
X4901430Y-2713750D01*
X4932930Y-2708460D01*
X4964420Y-2682010D01*
X4984100Y-2650250D01*
X4988040Y-2618500D01*
X4980170Y-2581470D01*
X4952610Y-2555000D01*
X4925050Y-2544410D01*
X4889610D01*
G01X4925050D02*
X4948670Y-2528540D01*
X4968360Y-2502090D01*
X4976230Y-2470340D01*
X4968360Y-2438580D01*
X4948670Y-2412130D01*
X4913240Y-2396250D01*
X4877810Y-2401540D01*
X4842370Y-2422710D01*
G01X5212450Y-2396250D02*
X5180950Y-2406830D01*
X5157330Y-2433290D01*
X5141580Y-2465040D01*
X5129770Y-2507380D01*
X5125840Y-2555000D01*
X5129770Y-2602630D01*
X5141580Y-2644960D01*
X5157330Y-2676720D01*
X5180950Y-2703170D01*
X5212450Y-2713750D01*
X5243940Y-2703170D01*
X5267570Y-2676720D01*
X5283320Y-2644960D01*
X5295130Y-2602630D01*
X5299060Y-2555000D01*
X5295130Y-2507380D01*
X5283320Y-2465040D01*
X5267570Y-2433290D01*
X5243940Y-2406830D01*
X5212450Y-2396250D01*
G01X5452600Y-2449170D02*
X5476230Y-2417420D01*
X5503790Y-2401540D01*
X5535290Y-2396250D01*
X5574650Y-2406830D01*
X5602220Y-2433290D01*
X5610090Y-2465040D01*
X5606150Y-2496800D01*
X5590400Y-2523250D01*
X5511660Y-2576170D01*
X5476230Y-2613210D01*
X5452600Y-2666140D01*
X5444730Y-2713750D01*
X5610090D01*
G01X4425050Y-3348750D02*
Y-3031250D01*
X4377810Y-3094750D01*
G01Y-3348750D02*
X4472290D01*
G01X4740010Y-3359330D02*
X4732130Y-3354040D01*
Y-3343460D01*
X4740010Y-3338170D01*
X4747890Y-3343460D01*
Y-3354040D01*
X4740010Y-3359330D01*
G01X5054970Y-3031250D02*
X5023470Y-3041830D01*
X4999850Y-3068290D01*
X4984100Y-3100040D01*
X4972290Y-3142380D01*
X4968360Y-3190000D01*
X4972290Y-3237630D01*
X4984100Y-3279960D01*
X4999850Y-3311720D01*
X5023470Y-3338170D01*
X5054970Y-3348750D01*
X5086460Y-3338170D01*
X5110090Y-3311720D01*
X5125840Y-3279960D01*
X5137650Y-3237630D01*
X5141580Y-3190000D01*
X5137650Y-3142380D01*
X5125840Y-3100040D01*
X5110090Y-3068290D01*
X5086460Y-3041830D01*
X5054970Y-3031250D01*
G01X4405360Y-1443750D02*
X4503790Y-1126250D01*
X4602220Y-1443750D01*
G01X4566780Y-1332630D02*
X4440790D01*
G01X4740010Y-1126250D02*
Y-1443750D01*
X4897490D01*
G01X5054970Y-1126250D02*
Y-1443750D01*
X5212450D01*
G01X5677020Y-1126250D02*
Y-1353790D01*
X5692760Y-1401430D01*
X5724260Y-1433170D01*
X5763630Y-1443750D01*
X5803000Y-1433170D01*
X5834500Y-1401430D01*
X5850240Y-1353790D01*
Y-1126250D01*
G01X5988040Y-1443750D02*
Y-1126250D01*
X6169140Y-1443750D01*
Y-1126250D01*
G01X6346310D02*
X6440790D01*
G01X6393550D02*
Y-1443750D01*
G01X6346310D02*
X6440790D01*
G01X6708510Y-1126250D02*
Y-1443750D01*
G01X6617960Y-1126250D02*
X6799060D01*
G01X6940790Y-1401430D02*
X6972290Y-1427880D01*
X7007720Y-1443750D01*
X7039220D01*
X7070710Y-1427880D01*
X7094340Y-1401430D01*
X7106150Y-1364370D01*
X7098280Y-1327340D01*
X7078590Y-1295590D01*
X7043150Y-1274410D01*
X6995910Y-1263830D01*
X6968350Y-1242670D01*
X6956540Y-1205630D01*
X6964420Y-1168580D01*
X6984100Y-1142130D01*
X7011660Y-1126250D01*
X7039220D01*
X7066780Y-1136830D01*
X7090400Y-1163290D01*
G01X7554960Y-1443750D02*
X7653390Y-1126250D01*
X7751820Y-1443750D01*
G01X7716380Y-1332630D02*
X7590390D01*
G01X7889610Y-1443750D02*
Y-1126250D01*
X7988030D01*
X8019530Y-1142130D01*
X8039220Y-1163290D01*
X8047090Y-1205630D01*
X8039220Y-1247960D01*
X8015590Y-1274410D01*
X7988030Y-1290300D01*
X7889610D01*
G01X7988030D02*
X8047090Y-1443750D01*
G01X8362050D02*
X8204570D01*
Y-1126250D01*
X8362050D01*
G01X8299060Y-1279700D02*
X8204570D01*
G01X8865990Y-1126250D02*
X8960470D01*
G01X8913230D02*
Y-1443750D01*
G01X8865990D02*
X8960470D01*
G01X9137640D02*
Y-1126250D01*
X9318740Y-1443750D01*
Y-1126250D01*
G01X9755740Y-1443750D02*
Y-1126250D01*
X9858110Y-1390830D01*
X9960480Y-1126250D01*
Y-1443750D01*
G01X10125830Y-1126250D02*
X10220310D01*
G01X10173070D02*
Y-1443750D01*
G01X10125830D02*
X10220310D01*
G01X10409290Y-1126250D02*
Y-1443750D01*
X10566770D01*
G01X10724250Y-1126250D02*
Y-1443750D01*
X10881730D01*
G01X11070710Y-1126250D02*
X11165190D01*
G01X11117950D02*
Y-1443750D01*
G01X11070710D02*
X11165190D01*
G01X11330540D02*
Y-1126250D01*
X11432910Y-1390830D01*
X11535280Y-1126250D01*
Y-1443750D01*
G01X11826610D02*
X11669130D01*
Y-1126250D01*
X11826610D01*
G01X11763620Y-1279700D02*
X11669130D01*
G01X12062830Y-1126250D02*
Y-1443750D01*
G01X11972280Y-1126250D02*
X12153380D01*
G01X12456530Y-1443750D02*
X12299050D01*
Y-1126250D01*
X12456530D01*
G01X12393540Y-1279700D02*
X12299050D01*
G01X12614010Y-1443750D02*
Y-1126250D01*
X12712430D01*
X12743930Y-1142130D01*
X12763620Y-1163290D01*
X12771490Y-1205630D01*
X12763620Y-1247960D01*
X12739990Y-1274410D01*
X12712430Y-1290300D01*
X12614010D01*
G01X12712430D02*
X12771490Y-1443750D01*
G01X12925030Y-1401430D02*
X12956530Y-1427880D01*
X12991960Y-1443750D01*
X13023460D01*
X13054950Y-1427880D01*
X13078580Y-1401430D01*
X13090390Y-1364370D01*
X13082520Y-1327340D01*
X13062830Y-1295590D01*
X13027390Y-1274410D01*
X12980150Y-1263830D01*
X12952590Y-1242670D01*
X12940780Y-1205630D01*
X12948660Y-1168580D01*
X12968340Y-1142130D01*
X12995900Y-1126250D01*
X13023460D01*
X13051020Y-1136830D01*
X13074640Y-1163290D01*
G01X4732140Y-793750D02*
Y-476250D01*
X4810870D01*
X4842370Y-492130D01*
X4865990Y-513290D01*
X4885680Y-545040D01*
X4901430Y-582090D01*
X4905360Y-635000D01*
X4901430Y-687920D01*
X4885680Y-724960D01*
X4865990Y-756720D01*
X4842370Y-777880D01*
X4810870Y-793750D01*
X4732140D01*
G01X5054970D02*
Y-476250D01*
X5153390D01*
X5184890Y-492130D01*
X5204580Y-513290D01*
X5212450Y-555630D01*
X5204580Y-597960D01*
X5180950Y-624410D01*
X5153390Y-640300D01*
X5054970D01*
G01X5153390D02*
X5212450Y-793750D01*
G01X5401430Y-476250D02*
X5495910D01*
G01X5448670D02*
Y-793750D01*
G01X5401430D02*
X5495910D01*
G01X5684890Y-476250D02*
Y-793750D01*
X5842370D01*
G01X5999850Y-476250D02*
Y-793750D01*
X6157330D01*
G01X6795120Y-502710D02*
X6771500Y-486830D01*
X6743950Y-476250D01*
X6712450D01*
X6677010Y-492130D01*
X6649460Y-518580D01*
X6629770Y-550340D01*
X6614020Y-603250D01*
X6610080Y-650880D01*
X6617960Y-698500D01*
X6629770Y-730250D01*
X6653390Y-762010D01*
X6680950Y-783170D01*
X6708510Y-793750D01*
X6736070D01*
X6763630Y-783170D01*
X6787250Y-767300D01*
X6806940Y-746140D01*
G01X6940790Y-793750D02*
Y-476250D01*
G01X7106150D02*
Y-793750D01*
G01Y-635000D02*
X6940790D01*
G01X7240000Y-793750D02*
X7338430Y-476250D01*
X7436860Y-793750D01*
G01X7401420Y-682630D02*
X7275430D01*
G01X7574650Y-793750D02*
Y-476250D01*
X7673070D01*
X7704570Y-492130D01*
X7724260Y-513290D01*
X7732130Y-555630D01*
X7724260Y-597960D01*
X7700630Y-624410D01*
X7673070Y-640300D01*
X7574650D01*
G01X7673070D02*
X7732130Y-793750D01*
G01X7968350Y-476250D02*
Y-793750D01*
G01X7877800Y-476250D02*
X8058900D01*
G01X8283310Y-804330D02*
X8275430Y-799040D01*
Y-788460D01*
X8283310Y-783170D01*
X8291190Y-788460D01*
Y-799040D01*
X8283310Y-804330D01*
G01Y-661470D02*
X8275430Y-656170D01*
Y-645590D01*
X8283310Y-640300D01*
X8291190Y-645590D01*
Y-656170D01*
X8283310Y-661470D01*
G01X8913230Y-476250D02*
Y-793750D01*
G01X8822680Y-476250D02*
X9003780D01*
G01X9228190Y-793750D02*
X9196690Y-788460D01*
X9169140Y-767300D01*
X9145510Y-735540D01*
X9129760Y-698500D01*
X9121890Y-656170D01*
Y-613830D01*
X9129760Y-571500D01*
X9145510Y-534460D01*
X9169140Y-502710D01*
X9196690Y-481540D01*
X9228190Y-476250D01*
X9259680Y-481540D01*
X9287240Y-502710D01*
X9310870Y-534460D01*
X9326620Y-571500D01*
X9334490Y-613830D01*
Y-656170D01*
X9326620Y-698500D01*
X9310870Y-735540D01*
X9287240Y-767300D01*
X9259680Y-788460D01*
X9228190Y-793750D01*
G01X9464410D02*
Y-476250D01*
X9558900D01*
X9590390Y-492130D01*
X9614020Y-529170D01*
X9621890Y-571500D01*
X9614020Y-613830D01*
X9594330Y-645590D01*
X9558900Y-661470D01*
X9464410D01*
G01X10173070Y-476250D02*
Y-793750D01*
G01X10117950Y-582090D02*
X10228190D01*
G01X10488030Y-793750D02*
X10464410Y-788460D01*
X10440790Y-767300D01*
X10425030Y-730250D01*
X10417160Y-687920D01*
X10425030Y-645590D01*
X10440790Y-608540D01*
X10464410Y-587380D01*
X10488030Y-582090D01*
X10511650Y-587380D01*
X10535270Y-608540D01*
X10551020Y-645590D01*
X10554960Y-687920D01*
X10551020Y-730250D01*
X10535270Y-767300D01*
X10511650Y-788460D01*
X10488030Y-793750D01*
G01X11149440Y-624410D02*
X11165190Y-608540D01*
X11177000Y-582090D01*
X11184880Y-545040D01*
X11177000Y-513290D01*
X11161260Y-492130D01*
X11133700Y-476250D01*
X11027400D01*
Y-793750D01*
X11157320D01*
X11184880Y-772590D01*
X11200630Y-740830D01*
X11208500Y-703790D01*
X11200630Y-666760D01*
X11177000Y-635000D01*
X11149440Y-624410D01*
X11027400D01*
G01X11432910Y-793750D02*
X11401410Y-788460D01*
X11373860Y-767300D01*
X11350230Y-735540D01*
X11334480Y-698500D01*
X11326610Y-656170D01*
Y-613830D01*
X11334480Y-571500D01*
X11350230Y-534460D01*
X11373860Y-502710D01*
X11401410Y-481540D01*
X11432910Y-476250D01*
X11464400Y-481540D01*
X11491960Y-502710D01*
X11515590Y-534460D01*
X11531340Y-571500D01*
X11539210Y-613830D01*
Y-656170D01*
X11531340Y-698500D01*
X11515590Y-735540D01*
X11491960Y-767300D01*
X11464400Y-788460D01*
X11432910Y-793750D01*
G01X11747870Y-476250D02*
Y-793750D01*
G01X11657320Y-476250D02*
X11838420D01*
G01X12062830D02*
Y-793750D01*
G01X11972280Y-476250D02*
X12153380D01*
G01X12377790Y-793750D02*
X12346290Y-788460D01*
X12318740Y-767300D01*
X12295110Y-735540D01*
X12279360Y-698500D01*
X12271490Y-656170D01*
Y-613830D01*
X12279360Y-571500D01*
X12295110Y-534460D01*
X12318740Y-502710D01*
X12346290Y-481540D01*
X12377790Y-476250D01*
X12409280Y-481540D01*
X12436840Y-502710D01*
X12460470Y-534460D01*
X12476220Y-571500D01*
X12484090Y-613830D01*
Y-656170D01*
X12476220Y-698500D01*
X12460470Y-735540D01*
X12436840Y-767300D01*
X12409280Y-788460D01*
X12377790Y-793750D01*
G01X12590380D02*
Y-476250D01*
X12692750Y-740830D01*
X12795120Y-476250D01*
Y-793750D01*
G01X8039220Y-2078750D02*
Y-1761250D01*
X8117950D01*
X8149450Y-1777130D01*
X8173070Y-1798290D01*
X8192760Y-1830040D01*
X8208510Y-1867090D01*
X8212440Y-1920000D01*
X8208510Y-1972920D01*
X8192760Y-2009960D01*
X8173070Y-2041720D01*
X8149450Y-2062880D01*
X8117950Y-2078750D01*
X8039220D01*
G01X8362050D02*
Y-1761250D01*
X8460470D01*
X8491970Y-1777130D01*
X8511660Y-1798290D01*
X8519530Y-1840630D01*
X8511660Y-1882960D01*
X8488030Y-1909410D01*
X8460470Y-1925300D01*
X8362050D01*
G01X8460470D02*
X8519530Y-2078750D01*
G01X8708510Y-1761250D02*
X8802990D01*
G01X8755750D02*
Y-2078750D01*
G01X8708510D02*
X8802990D01*
G01X8991970Y-1761250D02*
Y-2078750D01*
X9149450D01*
G01X9306930Y-1761250D02*
Y-2078750D01*
X9464410D01*
G01X9779370D02*
X9621890D01*
Y-1761250D01*
X9779370D01*
G01X9716380Y-1914700D02*
X9621890D01*
G01X9928980Y-2078750D02*
Y-1761250D01*
X10007710D01*
X10039210Y-1777130D01*
X10062830Y-1798290D01*
X10082520Y-1830040D01*
X10098270Y-1867090D01*
X10102200Y-1920000D01*
X10098270Y-1972920D01*
X10082520Y-2009960D01*
X10062830Y-2041720D01*
X10039210Y-2062880D01*
X10007710Y-2078750D01*
X9928980D01*
G01X10212440Y-2184580D02*
X10448660D01*
G01X10562830Y-2036430D02*
X10594330Y-2062880D01*
X10629760Y-2078750D01*
X10661260D01*
X10692750Y-2062880D01*
X10716380Y-2036430D01*
X10728190Y-1999370D01*
X10720320Y-1962340D01*
X10700630Y-1930590D01*
X10665190Y-1909410D01*
X10617950Y-1898830D01*
X10590390Y-1877670D01*
X10578580Y-1840630D01*
X10586460Y-1803580D01*
X10606140Y-1777130D01*
X10633700Y-1761250D01*
X10661260D01*
X10688820Y-1771830D01*
X10712440Y-1798290D01*
G01X10913230Y-1761250D02*
X11007710D01*
G01X10960470D02*
Y-2078750D01*
G01X10913230D02*
X11007710D01*
G01X11200620Y-1761250D02*
X11350240D01*
X11200620Y-2078750D01*
X11350240D01*
G01X11669130D02*
X11511650D01*
Y-1761250D01*
X11669130D01*
G01X11606140Y-1914700D02*
X11511650D01*
G01X7752750Y1330830D02*
X7776380Y1362580D01*
X7803940Y1378460D01*
X7835440Y1383750D01*
X7874800Y1373170D01*
X7902370Y1346710D01*
X7910240Y1314960D01*
X7906300Y1283200D01*
X7890550Y1256750D01*
X7811810Y1203830D01*
X7776380Y1166790D01*
X7752750Y1113860D01*
X7744880Y1066250D01*
X7910240D01*
G01X8055910Y1113860D02*
X8079520Y1087410D01*
X8107080Y1071540D01*
X8142520Y1066250D01*
X8177960Y1076830D01*
X8205510Y1097990D01*
X8225200Y1135040D01*
X8229130Y1177370D01*
X8221260Y1219700D01*
X8201570Y1246170D01*
X8174010Y1267330D01*
X8146460Y1272620D01*
X8118900Y1267330D01*
X8083470Y1246170D01*
X8095280Y1383750D01*
X8201570D01*
G01X8457480Y1055670D02*
X8449600Y1060960D01*
Y1071540D01*
X8457480Y1076830D01*
X8465360Y1071540D01*
Y1060960D01*
X8457480Y1055670D01*
G01X8819680Y1066250D02*
Y1383750D01*
X8674010Y1156210D01*
X8870870D01*
G01X9806930Y-3877920D02*
X9909290D01*
G01X9806930Y-3242920D02*
X9909290D01*
G01X9806930Y-2607920D02*
X9909290D01*
G01X13165190Y-3983750D02*
Y-3666250D01*
X13259680D01*
X13291170Y-3682130D01*
X13314800Y-3719170D01*
X13322670Y-3761500D01*
X13314800Y-3803830D01*
X13295110Y-3835590D01*
X13259680Y-3851470D01*
X13165190D01*
G01X13480150Y-3666250D02*
Y-3983750D01*
X13637630D01*
G01X13775420D02*
X13873850Y-3666250D01*
X13972280Y-3983750D01*
G01X13936840Y-3872630D02*
X13810850D01*
G01X14188810Y-3666250D02*
Y-3983750D01*
G01X14098260Y-3666250D02*
X14279360D01*
G01X14582510Y-3983750D02*
X14425030D01*
Y-3666250D01*
X14582510D01*
G01X14519520Y-3819700D02*
X14425030D01*
G01X14732120Y-3983750D02*
Y-3666250D01*
X14810850D01*
X14842350Y-3682130D01*
X14865970Y-3703290D01*
X14885660Y-3735040D01*
X14901410Y-3772090D01*
X14905340Y-3825000D01*
X14901410Y-3877920D01*
X14885660Y-3914960D01*
X14865970Y-3946720D01*
X14842350Y-3967880D01*
X14810850Y-3983750D01*
X14732120D01*
G01X13165190Y-3348750D02*
Y-3031250D01*
X13259680D01*
X13291170Y-3047130D01*
X13314800Y-3084170D01*
X13322670Y-3126500D01*
X13314800Y-3168830D01*
X13295110Y-3200590D01*
X13259680Y-3216470D01*
X13165190D01*
G01X13480150Y-3031250D02*
Y-3348750D01*
X13637630D01*
G01X13775420D02*
X13873850Y-3031250D01*
X13972280Y-3348750D01*
G01X13936840Y-3237630D02*
X13810850D01*
G01X14188810Y-3031250D02*
Y-3348750D01*
G01X14098260Y-3031250D02*
X14279360D01*
G01X14582510Y-3348750D02*
X14425030D01*
Y-3031250D01*
X14582510D01*
G01X14519520Y-3184700D02*
X14425030D01*
G01X14732120Y-3348750D02*
Y-3031250D01*
X14810850D01*
X14842350Y-3047130D01*
X14865970Y-3068290D01*
X14885660Y-3100040D01*
X14901410Y-3137090D01*
X14905340Y-3190000D01*
X14901410Y-3242920D01*
X14885660Y-3279960D01*
X14865970Y-3311720D01*
X14842350Y-3332880D01*
X14810850Y-3348750D01*
X14732120D01*
G01X13165190Y-2713750D02*
Y-2396250D01*
X13259680D01*
X13291170Y-2412130D01*
X13314800Y-2449170D01*
X13322670Y-2491500D01*
X13314800Y-2533830D01*
X13295110Y-2565590D01*
X13259680Y-2581470D01*
X13165190D01*
G01X13480150Y-2396250D02*
Y-2713750D01*
X13637630D01*
G01X13775420D02*
X13873850Y-2396250D01*
X13972280Y-2713750D01*
G01X13936840Y-2602630D02*
X13810850D01*
G01X14188810Y-2396250D02*
Y-2713750D01*
G01X14098260Y-2396250D02*
X14279360D01*
G01X14582510Y-2713750D02*
X14425030D01*
Y-2396250D01*
X14582510D01*
G01X14519520Y-2549700D02*
X14425030D01*
G01X14732120Y-2713750D02*
Y-2396250D01*
X14810850D01*
X14842350Y-2412130D01*
X14865970Y-2433290D01*
X14885660Y-2465040D01*
X14901410Y-2502090D01*
X14905340Y-2555000D01*
X14901410Y-2607920D01*
X14885660Y-2644960D01*
X14865970Y-2676720D01*
X14842350Y-2697880D01*
X14810850Y-2713750D01*
X14732120D01*
G01X13165190Y-2078750D02*
Y-1761250D01*
X13259680D01*
X13291170Y-1777130D01*
X13314800Y-1814170D01*
X13322670Y-1856500D01*
X13314800Y-1898830D01*
X13295110Y-1930590D01*
X13259680Y-1946470D01*
X13165190D01*
G01X13480150Y-1761250D02*
Y-2078750D01*
X13637630D01*
G01X13775420D02*
X13873850Y-1761250D01*
X13972280Y-2078750D01*
G01X13936840Y-1967630D02*
X13810850D01*
G01X14188810Y-1761250D02*
Y-2078750D01*
G01X14098260Y-1761250D02*
X14279360D01*
G01X14582510Y-2078750D02*
X14425030D01*
Y-1761250D01*
X14582510D01*
G01X14519520Y-1914700D02*
X14425030D01*
G01X14732120Y-2078750D02*
Y-1761250D01*
X14810850D01*
X14842350Y-1777130D01*
X14865970Y-1798290D01*
X14885660Y-1830040D01*
X14901410Y-1867090D01*
X14905340Y-1920000D01*
X14901410Y-1972920D01*
X14885660Y-2009960D01*
X14865970Y-2041720D01*
X14842350Y-2062880D01*
X14810850Y-2078750D01*
X14732120D01*
G01X16385660Y-3920250D02*
X16409270Y-3957300D01*
X16440770Y-3978460D01*
X16476210Y-3983750D01*
X16507710Y-3978460D01*
X16539200Y-3952010D01*
X16558880Y-3920250D01*
X16562820Y-3888500D01*
X16554950Y-3851470D01*
X16527390Y-3825000D01*
X16499830Y-3814410D01*
X16464390D01*
G01X16499830D02*
X16523450Y-3798540D01*
X16543140Y-3772090D01*
X16551010Y-3740340D01*
X16543140Y-3708580D01*
X16523450Y-3682130D01*
X16488020Y-3666250D01*
X16452590Y-3671540D01*
X16417150Y-3692710D01*
G01X16720300Y-3946720D02*
X16747860Y-3973170D01*
X16779350Y-3983750D01*
X16810850Y-3973170D01*
X16838410Y-3941430D01*
X16858100Y-3893790D01*
X16865970Y-3846170D01*
Y-3787960D01*
X16858100Y-3740340D01*
X16838410Y-3698000D01*
X16814790Y-3676830D01*
X16787230Y-3666250D01*
X16755730Y-3676830D01*
X16732110Y-3698000D01*
X16716360Y-3729750D01*
X16708490Y-3772090D01*
X16716360Y-3809120D01*
X16736050Y-3846170D01*
X16759670Y-3867340D01*
X16787230Y-3872630D01*
X16818720Y-3862050D01*
X16842350Y-3835590D01*
X16865970Y-3787960D01*
G01X16385660Y-2666140D02*
X16409270Y-2692590D01*
X16436830Y-2708460D01*
X16472270Y-2713750D01*
X16507710Y-2703170D01*
X16535260Y-2682010D01*
X16554950Y-2644960D01*
X16558880Y-2602630D01*
X16551010Y-2560300D01*
X16531320Y-2533830D01*
X16503760Y-2512670D01*
X16476210Y-2507380D01*
X16448650Y-2512670D01*
X16413220Y-2533830D01*
X16425030Y-2396250D01*
X16531320D01*
G01X16787230D02*
X16755730Y-2406830D01*
X16732110Y-2433290D01*
X16716360Y-2465040D01*
X16704550Y-2507380D01*
X16700620Y-2555000D01*
X16704550Y-2602630D01*
X16716360Y-2644960D01*
X16732110Y-2676720D01*
X16755730Y-2703170D01*
X16787230Y-2713750D01*
X16818720Y-2703170D01*
X16842350Y-2676720D01*
X16858100Y-2644960D01*
X16869910Y-2602630D01*
X16873840Y-2555000D01*
X16869910Y-2507380D01*
X16858100Y-2465040D01*
X16842350Y-2433290D01*
X16818720Y-2406830D01*
X16787230Y-2396250D01*
G01X16314790Y-2078750D02*
X16283290Y-2073460D01*
X16255740Y-2052300D01*
X16232110Y-2020540D01*
X16216360Y-1983500D01*
X16208490Y-1941170D01*
Y-1898830D01*
X16216360Y-1856500D01*
X16232110Y-1819460D01*
X16255740Y-1787710D01*
X16283290Y-1766540D01*
X16314790Y-1761250D01*
X16346280Y-1766540D01*
X16373840Y-1787710D01*
X16397470Y-1819460D01*
X16413220Y-1856500D01*
X16421090Y-1898830D01*
Y-1941170D01*
X16413220Y-1983500D01*
X16397470Y-2020540D01*
X16373840Y-2052300D01*
X16346280Y-2073460D01*
X16314790Y-2078750D01*
G01X16346280Y-1994080D02*
X16393530Y-2078750D01*
G01X16629750Y-1761250D02*
Y-2078750D01*
G01X16539200Y-1761250D02*
X16720300D01*
G01X16944710Y-2078750D02*
Y-1935880D01*
X16865970Y-1761250D01*
G01X17023450D02*
X16944710Y-1935880D01*
G01X16543140Y-3285250D02*
X16566750Y-3322300D01*
X16598250Y-3343460D01*
X16633690Y-3348750D01*
X16665190Y-3343460D01*
X16696680Y-3317010D01*
X16716360Y-3285250D01*
X16720300Y-3253500D01*
X16712430Y-3216470D01*
X16684870Y-3190000D01*
X16657310Y-3179410D01*
X16621870D01*
G01X16657310D02*
X16680930Y-3163540D01*
X16700620Y-3137090D01*
X16708490Y-3105340D01*
X16700620Y-3073580D01*
X16680930Y-3047130D01*
X16645500Y-3031250D01*
X16610070Y-3036540D01*
X16574630Y-3057710D01*
G01X20818510Y-1745250D02*
X20842120Y-1782300D01*
X20873620Y-1803460D01*
X20909060Y-1808750D01*
X20940560Y-1803460D01*
X20972050Y-1777010D01*
X20991730Y-1745250D01*
X20995670Y-1713500D01*
X20987800Y-1676470D01*
X20960240Y-1650000D01*
X20932680Y-1639410D01*
X20897240D01*
G01X20932680D02*
X20956300Y-1623540D01*
X20975990Y-1597090D01*
X20983860Y-1565340D01*
X20975990Y-1533580D01*
X20956300Y-1507130D01*
X20920870Y-1491250D01*
X20885440Y-1496540D01*
X20850000Y-1517710D01*
G01X21153150Y-1771720D02*
X21180710Y-1798170D01*
X21212200Y-1808750D01*
X21243700Y-1798170D01*
X21271260Y-1766430D01*
X21290950Y-1718790D01*
X21298820Y-1671170D01*
Y-1612960D01*
X21290950Y-1565340D01*
X21271260Y-1523000D01*
X21247640Y-1501830D01*
X21220080Y-1491250D01*
X21188580Y-1501830D01*
X21164960Y-1523000D01*
X21149210Y-1554750D01*
X21141340Y-1597090D01*
X21149210Y-1634120D01*
X21168900Y-1671170D01*
X21192520Y-1692340D01*
X21220080Y-1697630D01*
X21251570Y-1687050D01*
X21275200Y-1660590D01*
X21298820Y-1612960D01*
G01X21535040Y-1819330D02*
X21527160Y-1814040D01*
Y-1803460D01*
X21535040Y-1798170D01*
X21542920Y-1803460D01*
Y-1814040D01*
X21535040Y-1819330D01*
G01X21850000Y-1491250D02*
X21818500Y-1501830D01*
X21794880Y-1528290D01*
X21779130Y-1560040D01*
X21767320Y-1602380D01*
X21763390Y-1650000D01*
X21767320Y-1697630D01*
X21779130Y-1739960D01*
X21794880Y-1771720D01*
X21818500Y-1798170D01*
X21850000Y-1808750D01*
X21881490Y-1798170D01*
X21905120Y-1771720D01*
X21920870Y-1739960D01*
X21932680Y-1697630D01*
X21936610Y-1650000D01*
X21932680Y-1602380D01*
X21920870Y-1560040D01*
X21905120Y-1528290D01*
X21881490Y-1501830D01*
X21850000Y-1491250D01*
G01X22164960Y-1808750D02*
Y-1491250D01*
X22117720Y-1554750D01*
G01Y-1808750D02*
X22212200D01*
G01X22527160D02*
Y-1491250D01*
X22381490Y-1718790D01*
X22578350D01*
G01X22842120Y-1808750D02*
Y-1491250D01*
X22696450Y-1718790D01*
X22893310D01*
M02*
