M48
METRIC,TZ
T01C.3302
T02C1.
T03C1.0668
;LEADER: 12 
;HEADER: 
;CODE  : ASCII 
;FILE  : project01_2Doctoreda-1-2.drl for board E:/Users/migar/AppData/Roaming/SPB_Data/cdssetup/workspace/projects/project01/allegro/#Taaabma37948.tmp ... layers TOP and BOTTOM
;T01 Holesize 1. = 0.330200 Tolerance = +0.000000/-0.000000 PLATED MM Quantity = 50
;T02 Holesize 2. = 1.000000 Tolerance = +0.000000/-0.000000 PLATED MM Quantity = 3
;T03 Holesize 3. = 1.066800 Tolerance = +0.000000/-0.000000 PLATED MM Quantity = 39
%
G90
T01
X397500Y337500
X530000Y465000
X1027500Y465000
X1249250Y670340
X1365000Y850000
X1123520Y1740950
X2010000Y2152500
X2242500Y2155000
X2472500Y2152500
X2287880Y1191000
X2409120Y1002500
X2335000Y850000
X2857500Y1061890
X2732500Y1192500
X2630000Y1310000
X2861250Y1501250
X2872500Y1882500
X2797500Y2150000
X3335000Y2165000
X3062500Y2150000
X3290000Y1877500
X3450000Y1805000
X3104000Y1725000
X3472500Y1432500
X3535000Y1100000
X3412500Y980000
X3530000Y928940
X3465000Y550000
X3845000Y435000
X3690000Y928940
X3850000Y984500
X3687500Y1150000
X3827500Y1192500
X3610000Y1778940
X3930000Y1778940
X3690000Y1910000
X4140000Y1962500
X4527500Y1630000
X4390000Y1597500
X4228750Y476250
X4915000Y787500
X4914030Y1127500
X4630000Y1412500
X4882500Y1892500
X5322500Y2107500
X5325000Y1373540
X5399270Y1202500
X5418380Y950000
X5334270Y600000
X5928380Y1300000
T02
X6425000Y1000000
X6425000Y1400000
X6585000Y1700000
T03
X625000Y150000
X879000Y150000
X1133000Y150000
X1387000Y150000
X1641000Y150000
X1895000Y150000
X2149000Y150000
X2403000Y150000
X2657000Y150000
X2975000Y150000
X3229000Y150000
X3483000Y150000
X3737000Y150000
X3991000Y150000
X4245000Y150000
X4550000Y150000
X4804000Y150000
X5058000Y150000
X5312000Y150000
X5696000Y150000
X5950000Y150000
X5410000Y2375000
X5156000Y2375000
X4902000Y2375000
X4648000Y2375000
X4394000Y2375000
X4140000Y2375000
X3886000Y2375000
X3632000Y2375000
X3378000Y2375000
X3124000Y2375000
X2870000Y2375000
X2616000Y2375000
X2362000Y2375000
X2108000Y2375000
X1854000Y2375000
X1600000Y2375000
X1179000Y2075000
X925000Y2075000
M30
