M48
METRIC,TZ
T01C.0001
T02C.001
;EXTENTS: -391.350 -238.925 448.650 355.075 
;LEADER: 12 
;HEADER: 
;CODE  : ASCII 
;FILE  : E:/Users/migar/AppData/Roaming/SPB_Data/cdssetup/workspace/projects/project01/allegro/artwork/project01_2Doctoreda_1-2.rou for board E:/Users/migar/AppData/Roaming/SPB_Data/cdssetup/workspace/projects/project01/allegro/#Taaabmk37948.tmp, layers TOP to BOTTOM
%
G90
F1
M16
T01
M16
G00X6475000Y1065000
M15
G01X6475000Y935000
M16
G00X6375000Y935000
M15
G01X6375000Y1065000
M16
G00X6425000Y885000
M15
G03X6475000Y935000A49848
M16
G00X6375000Y935000
M15
G03X6425000Y885000A49848
M16
G00X6475000Y1065000
M15
G03X6425000Y1115000A49848
M16
G00X6425000Y1115000
M15
G03X6375000Y1065000A49848
M16
G00X6360000Y1450000
M15
G01X6490000Y1450000
M16
G00X6490000Y1350000
M15
G01X6360000Y1350000
M16
G00X6540000Y1400000
M15
G03X6490000Y1450000A49848
M16
G00X6490000Y1350000
M15
G03X6540000Y1400000A49848
M16
G00X6360000Y1450000
M15
G03X6310000Y1400000A49848
M16
G00X6310000Y1400000
M15
G03X6360000Y1350000A49848
M16
G00X6520000Y1750000
M15
G01X6650000Y1750000
M16
G00X6650000Y1650000
M15
G01X6520000Y1650000
M16
G00X6700000Y1700000
M15
G03X6650000Y1750000A49848
M16
G00X6650000Y1650000
M15
G03X6700000Y1700000A49848
M16
G00X6520000Y1750000
M15
G03X6470000Y1700000A49848
M16
G00X6470000Y1700000
M15
G03X6520000Y1650000A49848
M16
T02
M16
G00X7565000Y700000
M15
G01X7565000Y800000
G01X7290000Y800000
M16
G00X7290000Y970000
M15
G01X7565000Y970000
G01X7565000Y1730000
G01X7290000Y1730000
M16
G00X7290000Y1900000
M15
G01X7565000Y1900000
G01X7565000Y2000000
M16
G00X7205000Y885000
M15
G03X7290000Y800000A85014
M16
G00X7290000Y970000
M15
G03X7205000Y885000A85014
M16
G00X7205000Y1815000
M15
G03X7290000Y1730000A85014
M16
G00X7290000Y1900000
M15
G03X7205000Y1815000A85014
M16
G40
M30
