G04 ================== begin FILE IDENTIFICATION RECORD ==================*
G04 Layout Name:  project01_2Doctoreda.brd*
G04 Film Name:    top_mask*
G04 File Format:  Gerber RS274X*
G04 File Origin:  Cadence Allegro 24.1-S004*
G04 Origin Date:  Sat May 17 17:30:28 2025*
G04 *
G04 Layer:  VIA CLASS/SOLDERMASK_TOP*
G04 Layer:  PIN/SOLDERMASK_TOP*
G04 *
G04 Offset:    (0.0000 0.0000)*
G04 Mirror:    No*
G04 Mode:      Positive*
G04 Rotation:  0*
G04 FullContactRelief:  No*
G04 UndefLineWidth:     0.2100*
G04 ================== end FILE IDENTIFICATION RECORD ====================*
%FSLAX25Y25*MOMM*%
%IR0*IPPOS*OFA0.00000B0.00000*MIA0B0*SFA1.00000B1.00000*%
%ADD20R,1.1112X.6007*%
%ADD19R,.7112X1.2446*%
%ADD17R,1.4613X.5009*%
%ADD18R,.5009X1.4613*%
%ADD21R,.5588X1.3208*%
%ADD16R,5.2499X.95*%
%ADD10R,1.1501X1.4501*%
%ADD22O,1.508X3.016*%
%ADD23O,3.016X1.508*%
%ADD12C,1.1176*%
%ADD15R,1.397X2.1082*%
%ADD14C,1.5748*%
%ADD13R,1.5748X1.5748*%
%ADD11R,.9652X.889*%
%LPD*%
G75*
G54D10*
X140000Y190000D03*
X320000D03*
X2522500Y1002500D03*
X2702500D03*
X5815000Y1300000D03*
X5635000D03*
X5305000Y950000D03*
X5125000D03*
G54D11*
X177610Y465000D03*
X322390D03*
X4665110Y1127500D03*
X4809890D03*
X4777610Y1547500D03*
X4922390D03*
G54D20*
X5662500Y985000D03*
X6007500D03*
G54D12*
X530000Y465000D03*
X397500Y337500D03*
X1027500Y465000D03*
X1249250Y670340D03*
X1123520Y1740950D03*
X1365000Y850000D03*
X2010000Y2152500D03*
X2732500Y1192500D03*
X2335000Y850000D03*
X2409120Y1002500D03*
X2287880Y1191000D03*
X2630000Y1310000D03*
X2797500Y2150000D03*
X2472500Y2152500D03*
X2242500Y2155000D03*
X2857500Y1061890D03*
X3535000Y1100000D03*
X3465000Y550000D03*
X3412500Y980000D03*
X3530000Y928940D03*
X3290000Y1877500D03*
X3104000Y1725000D03*
X2872500Y1882500D03*
X3472500Y1432500D03*
X2861250Y1501250D03*
X3450000Y1805000D03*
X3062500Y2150000D03*
X3335000Y2165000D03*
X4228750Y476250D03*
X3845000Y435000D03*
X3850000Y984500D03*
X3827500Y1192500D03*
X3690000Y928940D03*
X3687500Y1150000D03*
X3690000Y1910000D03*
X3930000Y1778940D03*
X4140000Y1962500D03*
X3610000Y1778940D03*
X4914030Y1127500D03*
X4915000Y787500D03*
X4882500Y1892500D03*
X4630000Y1412500D03*
X4527500Y1630000D03*
X4390000Y1597500D03*
X5334270Y600000D03*
X5399270Y1202500D03*
X5418380Y950000D03*
X5325000Y1373540D03*
X5322500Y2107500D03*
X5928380Y1300000D03*
G54D21*
X5230000Y1754540D03*
X5420000D03*
Y1495460D03*
X5325000D03*
X5230000D03*
G54D13*
X625000Y150000D03*
X925000Y2075000D03*
X1600000Y2375000D03*
X2975000Y150000D03*
X3886000Y2375000D03*
X4550000Y150000D03*
X5950000D03*
G54D22*
X6425000Y1000000D03*
G54D14*
X879000Y150000D03*
X1133000D03*
X1179000Y2075000D03*
X1387000Y150000D03*
X1641000D03*
X1895000D03*
X1854000Y2375000D03*
X2149000Y150000D03*
X2403000D03*
X2657000D03*
X2108000Y2375000D03*
X2362000D03*
X2616000D03*
X3229000Y150000D03*
X3483000D03*
X2870000Y2375000D03*
X3124000D03*
X3378000D03*
X3737000Y150000D03*
X3991000D03*
X4245000D03*
X3632000Y2375000D03*
X4140000D03*
X4804000Y150000D03*
X5058000D03*
X4394000Y2375000D03*
X4648000D03*
X4902000D03*
X5696000Y150000D03*
X5312000D03*
X5156000Y2375000D03*
X5410000D03*
G54D23*
X6425000Y1400000D03*
X6585000Y1700000D03*
G54D15*
X1123520Y670340D03*
X676480D03*
Y1579660D03*
X1123520D03*
G54D16*
X1977000Y1191000D03*
Y996000D03*
Y1386000D03*
G54D17*
X3225000Y945000D03*
Y1025000D03*
Y1105000D03*
Y1185000D03*
Y1265000D03*
Y1345000D03*
Y1425000D03*
Y1505000D03*
X4075000Y1265000D03*
Y1185000D03*
Y1105000D03*
Y1025000D03*
Y945000D03*
Y1505000D03*
Y1425000D03*
Y1345000D03*
G54D18*
X3530000Y800000D03*
X3450000D03*
X3370000D03*
Y1650000D03*
X3450000D03*
X3530000D03*
X3930000Y800000D03*
X3850000D03*
X3770000D03*
X3690000D03*
X3610000D03*
Y1650000D03*
X3690000D03*
X3770000D03*
X3850000D03*
X3930000D03*
G54D19*
X5042170Y600000D03*
X5107170Y1202500D03*
X5307830D03*
X5242830Y600000D03*
M02*
